<?xml version="1.0" standalone="no"?>
<!DOCTYPE svg PUBLIC "-//W3C//DTD SVG 20010904//EN"
 "http://www.w3.org/TR/2001/REC-SVG-20010904/DTD/svg10.dtd">
<svg version="1.0" xmlns="http://www.w3.org/2000/svg"
 width="960.000000pt" height="960.000000pt" viewBox="0 0 960.000000 960.000000"
 preserveAspectRatio="xMidYMid meet">
<metadata>
Created by potrace 1.14, written by Peter Selinger 2001-2017
</metadata>
<g transform="translate(0.000000,960.000000) scale(0.100000,-0.100000)"
fill="#000000" stroke="none">
<path d="M0 9199 l0 -401 25 4 c21 4 23 3 14 -9 -14 -16 -15 -16 41 -30 30 -8
49 -8 57 -1 19 15 89 0 163 -36 48 -22 76 -30 106 -28 28 3 56 -3 82 -17 23
-12 47 -21 53 -21 7 0 22 -9 34 -20 18 -17 27 -19 48 -11 15 6 27 6 29 1 2 -5
22 -10 46 -11 24 -2 46 -7 48 -11 3 -5 9 -6 14 -3 5 3 12 1 15 -5 5 -8 11 -8
20 0 15 13 49 -12 68 -50 9 -17 22 -26 44 -28 22 -2 30 -7 27 -16 -4 -11 8
-13 60 -9 46 4 66 2 66 -6 0 -6 5 -11 11 -11 6 0 9 7 5 15 -4 10 1 15 14 15
12 0 20 -7 20 -16 0 -13 7 -15 36 -11 21 4 54 0 79 -9 24 -8 50 -11 59 -8 9 3
16 1 16 -5 0 -6 13 -11 29 -11 16 0 31 -6 34 -12 3 -10 7 -10 19 0 13 11 17 6
23 -30 5 -24 9 -48 9 -55 1 -6 4 -15 8 -18 4 -4 0 -25 -8 -47 -16 -47 -18 -60
-3 -35 19 32 28 17 24 -40 -2 -38 2 -67 12 -87 16 -31 19 -57 28 -215 2 -51 9
-99 15 -106 6 -8 13 -41 15 -74 2 -33 8 -68 14 -79 6 -11 7 -23 3 -27 -4 -5
-2 -5 5 -1 9 5 12 -9 13 -51 1 -84 8 -175 15 -198 4 -14 -1 -30 -15 -48 -21
-26 -27 -28 -93 -26 -74 2 -97 8 -131 40 -11 11 -27 19 -36 19 -10 0 -29 11
-44 25 -14 13 -26 20 -26 16 0 -15 -71 6 -85 26 -8 10 -15 21 -15 26 0 12 -28
8 -33 -5 -3 -10 -8 -10 -21 1 -9 8 -49 20 -89 28 -120 23 -127 25 -127 32 0 3
-21 7 -47 8 -29 1 -59 11 -82 26 -55 36 -149 66 -181 57 -24 -7 -57 2 -70 20
-3 4 -20 15 -39 25 l-35 18 -22 -29 c-13 -15 -21 -31 -18 -36 9 -13 -15 -9
-41 8 -14 9 -21 22 -18 30 12 31 -7 61 -53 84 -42 22 -47 23 -55 7 -12 -21
-33 -23 -25 -2 4 11 -2 15 -20 15 -17 0 -28 7 -31 20 -4 16 -35 35 -53 32 -3
0 -12 6 -21 14 -9 8 -19 11 -22 7 -4 -3 -7 -874 -7 -1935 l0 -1928 43 -2 c23
-1 67 -3 97 -4 30 -2 69 -6 85 -9 17 -4 44 -6 60 -6 17 1 68 -3 115 -8 124
-15 221 -23 485 -41 83 -5 170 -12 195 -15 25 -2 77 -7 115 -10 39 -3 115 -10
170 -15 55 -5 145 -12 200 -15 55 -3 134 -8 175 -11 72 -5 89 -7 190 -19 25
-2 74 -7 110 -10 36 -3 108 -9 160 -15 52 -5 133 -8 180 -6 47 2 94 2 105 -1
12 -2 30 -24 44 -54 15 -29 41 -60 64 -76 33 -23 49 -27 108 -27 61 1 69 -2
69 -18 0 -11 9 -36 19 -56 11 -20 30 -59 41 -87 12 -27 27 -56 33 -63 6 -8 12
-22 14 -32 1 -10 12 -34 23 -52 10 -18 29 -52 40 -75 11 -24 25 -43 30 -43 6
0 10 -9 10 -20 0 -11 7 -23 15 -26 8 -4 15 -18 15 -33 1 -19 11 -33 40 -53 38
-27 52 -48 30 -48 -5 0 -10 -6 -10 -13 0 -7 -9 -20 -20 -30 -22 -19 -35 -22
-25 -7 3 6 0 10 -9 10 -8 0 -16 5 -18 12 -2 6 -10 8 -16 4 -9 -5 -7 -15 8 -36
18 -26 28 -80 14 -80 -9 0 -34 28 -34 38 0 6 -7 12 -15 16 -18 7 -20 32 -2 39
7 4 6 6 -4 6 -9 1 -20 -6 -23 -15 -10 -25 -7 -34 9 -34 8 0 15 -4 15 -9 0 -6
-12 -6 -30 -1 -24 7 -30 6 -30 -6 0 -11 -6 -13 -19 -9 -22 7 -36 -22 -32 -69
1 -25 -1 -28 -24 -24 -21 4 -25 1 -25 -17 0 -31 11 -38 26 -17 11 14 15 14 22
4 12 -18 75 -2 106 26 12 11 35 22 53 25 30 6 33 4 39 -28 6 -33 28 -48 36
-24 3 8 10 6 20 -5 10 -9 24 -13 35 -9 14 5 13 1 -6 -20 -17 -18 -28 -24 -36
-17 -7 6 -16 5 -23 -2 -16 -16 -15 -31 1 -21 6 4 24 8 40 8 24 0 25 -2 11 -12
-10 -7 -14 -19 -10 -28 3 -10 -3 -29 -14 -45 -12 -17 -20 -44 -20 -68 0 -23
-5 -44 -10 -47 -6 -4 -8 -11 -4 -16 3 -6 -1 -18 -9 -27 -8 -9 -18 -27 -21 -39
-4 -13 -15 -23 -26 -23 -13 0 -17 -5 -13 -18 3 -13 -9 -29 -39 -53 -95 -76
-170 -166 -211 -255 -20 -41 -68 -70 -147 -85 -35 -7 -76 -18 -90 -26 -14 -7
-29 -13 -33 -13 -17 0 -133 -85 -174 -127 -45 -45 -156 -107 -213 -117 -29 -5
-110 -65 -110 -81 0 -12 -54 -57 -58 -47 -5 15 -39 16 -47 2 -9 -14 -42 -12
-48 3 -3 9 -11 8 -33 -3 -24 -13 -33 -14 -54 -3 -22 11 -27 10 -42 -7 -19 -24
-51 -26 -68 -5 -9 10 -17 12 -24 6 -7 -6 -32 -13 -56 -17 -35 -6 -45 -4 -57
11 -11 16 -13 16 -13 3 0 -19 -16 -33 -49 -43 l-24 -7 21 35 c24 38 28 52 11
41 -6 -3 -15 -1 -19 5 -4 8 -15 0 -31 -23 -15 -23 -26 -31 -31 -23 -4 7 -14
12 -22 12 -9 0 -16 5 -15 10 0 6 8 9 18 7 21 -3 45 22 38 40 -4 9 -6 9 -6 -2
-1 -11 -13 -16 -41 -16 -22 -1 -37 2 -35 7 12 18 -13 16 -29 -2 -12 -15 -24
-19 -42 -15 -14 4 -24 2 -24 -4 0 -5 -9 -10 -21 -10 -27 0 -19 24 9 28 27 4
27 7 4 31 -9 11 -23 27 -30 35 -14 17 -67 23 -57 6 3 -5 13 -6 22 -3 13 5 15
2 10 -11 -4 -10 -7 -26 -7 -37 0 -11 -7 -19 -16 -19 -13 0 -14 3 -4 15 10 12
9 16 -4 21 -9 3 -16 17 -16 29 0 30 -56 73 -73 56 -13 -13 -47 -15 -47 -3 0 4
5 13 12 20 9 9 9 12 1 12 -7 0 -14 -9 -18 -19 -11 -35 -34 -33 -41 4 -6 33
-34 71 -34 46 0 -6 6 -11 13 -11 7 0 4 -7 -7 -15 -24 -18 -59 -20 -53 -2 2 6
13 11 24 10 12 -1 20 3 20 10 -1 42 3 50 19 36 14 -11 18 -11 29 4 7 9 18 17
24 17 7 0 9 4 6 10 -3 5 0 7 8 4 9 -3 26 9 44 31 24 29 32 33 37 20 4 -12 10
-14 25 -5 22 11 51 4 51 -14 0 -6 7 -3 14 7 7 9 18 17 25 17 6 0 11 6 11 14 0
8 10 13 25 13 13 0 42 10 63 21 l40 20 -6 -21 c-5 -20 -4 -20 11 -8 9 7 31 15
49 17 18 1 35 3 38 4 3 1 23 2 45 1 34 -1 37 1 17 9 -32 14 -28 16 26 14 26
-1 57 5 69 12 13 8 36 12 56 9 28 -5 35 -2 46 19 8 14 11 31 8 40 -4 10 -1 13
9 9 7 -3 14 -1 14 5 0 5 7 13 16 16 13 5 15 2 11 -13 -3 -11 1 -25 8 -31 8 -6
12 -17 9 -25 -3 -7 -1 -16 5 -20 7 -3 11 2 11 14 0 10 5 21 12 23 8 3 2 15
-15 34 -28 29 -32 64 -10 72 8 2 13 -5 13 -17 0 -12 5 -21 11 -21 6 0 9 -7 5
-15 -4 -10 1 -15 14 -15 26 0 25 16 0 37 -11 10 -20 22 -20 27 0 6 5 5 12 -2
17 -17 31 -15 24 3 -4 11 2 15 23 15 16 0 35 7 42 16 9 11 23 14 45 11 26 -4
32 -2 27 9 -4 10 0 12 12 7 16 -6 17 -2 12 30 -6 37 -2 42 27 31 13 -5 14 -10
5 -20 -8 -10 -5 -12 18 -10 15 1 42 -4 58 -13 17 -8 36 -14 42 -13 19 4 16
-19 -5 -34 -12 -9 -14 -16 -6 -21 6 -5 14 -17 18 -28 5 -19 1 -21 -39 -23 -34
-1 -45 2 -45 13 0 24 -28 17 -46 -10 -13 -20 -19 -23 -30 -14 -8 6 -14 19 -15
28 0 13 -2 13 -8 -2 -4 -10 -11 -18 -16 -18 -5 1 -10 -13 -11 -30 -2 -36 19
-48 45 -25 10 9 32 16 49 16 18 0 32 5 32 10 0 6 -7 10 -15 10 -8 0 -15 4 -15
10 0 6 10 5 25 -2 14 -6 25 -17 25 -23 0 -22 39 -24 78 -4 20 10 30 19 22 19
-12 0 -11 3 3 11 9 5 22 7 28 4 12 -8 38 23 39 47 0 9 -9 23 -19 30 -10 8 -21
25 -24 38 l-4 25 -8 -22 c-8 -26 -25 -31 -25 -8 0 8 -8 19 -19 24 -13 8 -17
18 -13 37 4 22 6 24 14 10 5 -9 17 -16 28 -16 10 0 31 -11 47 -24 22 -19 33
-22 47 -14 23 13 33 2 19 -21 -9 -14 -7 -21 8 -35 11 -9 25 -16 32 -16 9 0 9
2 -1 8 -18 12 -11 64 10 70 10 2 16 7 14 11 -3 4 4 7 15 7 25 0 21 -28 -4 -32
-26 -4 -34 -14 -11 -14 20 -1 54 -22 54 -35 0 -4 -7 -4 -16 -1 -15 6 -15 4 -3
-10 8 -10 15 -12 17 -5 2 6 10 11 18 11 18 0 18 24 -1 40 -19 16 -19 30 1 30
8 0 12 5 9 10 -3 6 3 10 13 10 11 0 22 9 25 20 3 11 11 20 17 20 7 0 10 -8 7
-20 -3 -11 -4 -20 -2 -20 12 0 55 25 55 32 0 4 9 8 20 8 23 0 27 18 5 25 -49
16 -50 16 -36 24 7 5 27 5 44 1 25 -5 31 -11 30 -28 -4 -36 14 -25 24 15 6 27
15 39 33 43 13 3 25 11 28 18 5 15 -14 16 -23 2 -4 -6 -15 -8 -25 -5 -13 4
-22 -1 -30 -15 -9 -16 -15 -18 -30 -10 -11 6 -20 17 -20 25 0 14 -37 31 -47
22 -2 -3 4 -14 14 -24 17 -17 16 -18 -47 -18 -55 0 -65 3 -64 18 1 9 -2 17 -7
17 -5 0 -9 -4 -9 -10 0 -19 -31 -10 -39 12 -5 14 -10 17 -15 10 -4 -7 -4 -12
0 -12 13 0 -30 -29 -43 -30 -7 0 -13 10 -13 23 0 18 -2 19 -10 7 -5 -8 -10
-10 -10 -5 1 6 14 25 31 43 36 40 82 42 87 4 2 -12 8 -22 14 -22 6 0 8 11 6
24 -4 18 0 26 16 30 11 3 25 1 31 -4 18 -15 40 13 41 52 0 27 -4 38 -14 38 -9
0 -12 -6 -8 -15 3 -9 -1 -18 -9 -21 -8 -4 -15 -12 -15 -19 0 -27 -86 -36 -97
-10 -5 14 -8 14 -29 0 -12 -8 -30 -12 -38 -9 -9 3 -16 1 -16 -5 0 -6 5 -11 11
-11 5 0 8 -4 5 -9 -3 -4 -18 -7 -33 -5 -34 4 -63 -4 -63 -17 0 -6 15 -9 33 -7
30 3 32 1 34 -29 1 -22 -3 -33 -12 -33 -8 0 -21 -7 -30 -16 -12 -13 -19 -14
-30 -4 -12 10 -16 9 -21 -4 -9 -24 -21 -19 -28 10 -8 32 10 57 24 35 4 -8 18
-16 30 -18 19 -3 20 -2 6 12 -8 8 -29 18 -45 21 -27 6 -31 4 -31 -15 0 -12 -6
-21 -15 -21 -8 0 -15 -5 -15 -11 0 -6 -9 -8 -20 -4 -11 3 -25 3 -32 -2 -7 -4
-53 -9 -103 -10 -115 -3 -147 -6 -164 -17 -8 -5 -16 -4 -21 4 -4 7 -15 10 -25
7 -9 -4 -13 -12 -9 -19 5 -8 0 -9 -17 -4 -31 10 -82 8 -89 -3 -9 -14 -48 -22
-54 -12 -4 6 -13 8 -21 4 -8 -3 -15 0 -15 6 0 6 -4 11 -10 11 -5 0 -10 -9 -10
-20 0 -22 -15 -27 -26 -9 -5 8 -10 6 -16 -5 -11 -20 -38 -21 -38 -1 0 22 -27
18 -40 -5 -7 -13 -21 -20 -42 -20 -26 0 -29 -2 -18 -15 12 -14 0 -22 -13 -9
-4 4 -22 8 -42 10 -24 2 -35 -1 -35 -10 0 -17 -22 -26 -66 -26 -24 0 -34 5
-34 15 0 8 -4 15 -9 15 -14 0 -26 -23 -22 -43 2 -16 -1 -17 -17 -8 -15 8 -23
7 -31 -3 -6 -7 -8 -16 -4 -19 3 -4 1 -7 -6 -7 -7 0 -20 9 -29 19 -21 23 -78
35 -88 19 -5 -8 -10 -5 -15 8 -7 18 -8 18 -8 0 -1 -12 -6 -16 -17 -12 -11 4
-18 -1 -21 -14 -7 -26 -29 -20 -25 6 2 10 1 16 -4 12 -4 -4 -13 -3 -21 3 -10
9 -18 6 -33 -12 l-20 -24 -20 24 -20 23 0 -30 c0 -17 -5 -34 -10 -37 -6 -3
-10 -2 -10 3 0 6 -16 10 -35 10 -19 0 -35 -4 -35 -10 0 -5 -4 -6 -10 -3 -5 3
-10 14 -10 24 0 23 -26 46 -35 31 -3 -5 -15 -10 -27 -10 -17 0 -18 -2 -8 -15
10 -12 10 -15 -3 -15 -8 0 -18 6 -21 13 -3 9 -9 7 -19 -5 -14 -17 -43 -26 -33
-10 2 4 -13 8 -34 8 -29 1 -37 -2 -33 -12 7 -18 -8 -18 -43 1 -16 8 -39 12
-53 8 -17 -4 -22 -2 -17 6 5 7 0 11 -13 11 -12 0 -21 -4 -21 -10 0 -5 6 -10
14 -10 21 0 40 -26 25 -35 -6 -4 -14 -3 -18 3 -15 25 -85 4 -74 -24 2 -6 0
-15 -6 -18 -5 -4 -12 2 -15 12 -6 18 -29 33 -69 46 -12 4 -20 -1 -26 -17 -12
-30 -5 -34 19 -12 19 18 20 17 20 -1 0 -11 5 -25 11 -31 9 -9 4 -12 -20 -11
-18 1 -37 -4 -43 -10 -20 -20 -30 -13 -26 18 3 17 1 33 -3 36 -5 2 -8 -207 -9
-465 l0 -471 27 11 c15 5 33 15 40 21 7 5 18 8 25 6 7 -3 18 2 24 10 8 11 40
15 130 17 123 3 149 7 182 24 10 5 27 10 38 10 10 1 37 3 58 6 52 6 58 0 41
-42 -19 -46 -10 -114 16 -120 23 -6 25 -23 4 -23 -8 0 -15 -9 -15 -19 0 -11
-5 -23 -10 -26 -6 -4 -8 -11 -5 -16 4 -5 2 -9 -4 -9 -7 0 -7 -8 1 -25 10 -21
8 -28 -10 -43 -12 -11 -19 -21 -17 -24 3 -3 -2 -28 -11 -56 -18 -54 -27 -58
-70 -34 -24 13 -34 7 -34 -20 0 -16 -3 -17 -21 -8 -11 7 -23 9 -27 6 -3 -3 0
-6 6 -6 7 0 12 -7 12 -15 0 -18 1 -18 33 -6 14 6 29 6 38 0 8 -5 9 -9 3 -9
-22 0 -23 -28 -3 -51 12 -14 16 -25 10 -27 -6 -2 -11 -8 -11 -13 0 -4 7 -6 16
-2 12 4 15 2 12 -8 -3 -8 -15 -13 -28 -11 -19 3 -22 1 -13 -10 5 -7 13 -27 16
-45 5 -26 3 -31 -8 -26 -8 3 -15 0 -15 -6 0 -6 5 -11 10 -11 17 0 5 -69 -15
-83 -15 -12 -16 -17 -5 -37 9 -18 10 -25 1 -28 -6 -2 -8 -14 -5 -28 5 -19 3
-23 -10 -18 -11 4 -16 1 -16 -10 0 -9 8 -16 18 -16 15 -1 15 -2 -3 -16 -11 -8
-18 -23 -17 -32 2 -9 -8 0 -22 21 -31 45 -32 57 -8 57 14 0 15 2 2 10 -12 8
-11 10 7 10 12 0 27 9 33 19 11 22 14 48 3 38 -3 -4 -12 -2 -20 4 -9 8 -17 8
-26 0 -10 -8 -17 -7 -25 1 -9 9 -10 -1 -5 -40 5 -47 4 -52 -11 -46 -13 5 -14
9 -6 14 9 6 9 9 0 15 -9 6 -9 10 1 16 11 7 11 9 -2 9 -23 0 -44 26 -27 33 7 3
0 6 -15 6 -20 1 -26 -3 -20 -12 4 -6 6 -20 5 -29 -2 -10 3 -18 11 -18 18 0 33
-33 18 -38 -21 -7 -11 -40 14 -46 16 -4 22 -11 19 -21 -8 -20 -31 -19 -43 2
-9 16 -12 16 -21 3 -5 -8 -10 -23 -10 -32 0 -10 -7 -18 -16 -18 -9 0 -14 -3
-12 -7 3 -5 11 -23 18 -41 8 -17 20 -32 27 -32 16 0 16 -1 2 -37 -9 -25 -12
-26 -20 -10 -6 9 -7 22 -4 27 3 6 -1 17 -10 26 -9 9 -14 21 -12 27 2 7 -6 19
-17 29 -17 14 -18 17 -5 18 19 0 33 26 19 35 -6 4 -10 1 -10 -5 0 -6 -8 -10
-17 -8 -12 2 -18 -3 -17 -15 2 -14 -1 -15 -13 -6 -28 24 -37 51 -19 61 9 5 16
14 16 20 0 6 7 16 15 22 14 10 14 15 0 44 -18 35 -32 41 -41 17 -5 -11 -10
-12 -26 -4 -15 8 -22 8 -28 -1 -5 -8 -10 -9 -14 -2 -4 6 3 16 14 22 11 6 20 7
21 3 1 -4 4 3 8 17 7 25 13 27 71 17 14 -2 18 -2 8 0 -9 2 -19 11 -22 20 -5
12 -1 14 19 11 28 -6 33 11 14 59 -10 27 -11 27 -24 9 -8 -10 -12 -23 -9 -27
3 -5 -7 -9 -22 -9 -25 0 -26 1 -11 24 15 23 13 36 -5 36 -4 0 -8 -6 -8 -14 0
-8 -7 -16 -15 -20 -9 -3 -15 0 -15 9 0 8 5 15 11 15 5 0 7 4 4 10 -3 5 -1 27
5 47 9 34 8 40 -11 56 -12 9 -16 17 -9 17 10 0 10 3 0 15 -18 22 -51 19 -57
-5 -3 -11 -9 -20 -14 -20 -5 0 -9 -158 -9 -360 0 -313 2 -360 15 -360 17 0 20
31 4 47 -8 8 -8 13 0 17 6 4 11 0 11 -9 0 -9 6 -15 12 -13 7 3 13 17 13 32 1
16 9 34 19 41 10 8 15 18 11 24 -3 6 0 11 7 11 9 0 9 3 -2 10 -12 7 -12 12 -3
21 10 10 18 10 38 1 22 -10 25 -9 25 8 0 27 16 25 23 -2 8 -29 0 -40 -24 -33
-31 10 -22 -14 11 -27 22 -10 27 -17 21 -27 -7 -12 -14 -10 -37 8 -27 21 -43
18 -48 -10 -1 -8 -7 -23 -13 -34 -10 -18 -8 -20 25 -23 34 -2 35 -2 18 17 -10
10 -13 21 -8 25 14 9 52 -5 52 -20 0 -8 8 -14 17 -14 13 0 14 -3 5 -12 -8 -8
-15 -8 -25 1 -12 9 -15 7 -19 -14 -5 -23 -2 -25 28 -25 19 0 34 5 34 11 0 8 4
8 13 1 9 -8 155 -11 460 -12 419 0 448 1 454 17 4 10 20 40 35 67 21 34 26 52
18 60 -14 18 -1 27 20 16 17 -9 17 -7 4 37 -8 25 -14 69 -14 98 0 43 4 55 29
79 24 23 34 26 64 21 20 -4 46 -19 60 -35 14 -15 31 -30 38 -32 17 -6 19 -122
2 -124 -7 -1 -17 -2 -22 -3 -25 -3 -40 -62 -34 -131 l6 -70 32 0 c28 0 35 5
45 33 7 18 14 26 17 19 3 -7 -1 -19 -7 -28 -7 -8 -11 -17 -8 -19 3 -3 141 -4
307 -3 l302 3 -31 49 c-23 35 -28 51 -20 56 9 6 9 10 -2 16 -8 5 -17 17 -21
27 -3 9 -13 17 -21 17 -9 0 -18 12 -22 28 -3 15 -8 34 -11 42 -4 8 -5 19 -4
24 1 5 -7 15 -19 23 -11 8 -20 20 -19 26 3 26 -2 36 -22 42 -23 8 -59 82 -59
125 0 15 6 33 14 40 16 13 11 41 -7 37 -8 -1 -12 15 -12 45 0 40 3 48 19 48
11 0 16 -5 13 -14 -8 -20 4 -28 20 -15 20 17 16 39 -9 49 l-23 9 22 0 c16 1
21 6 17 16 -4 8 -1 15 6 15 8 0 10 -9 6 -24 -6 -24 14 -43 39 -37 6 2 7 -1 3
-5 -4 -4 2 -20 13 -36 12 -16 19 -31 16 -34 -3 -3 8 -20 24 -37 17 -18 32 -43
36 -57 3 -14 9 -29 13 -35 4 -5 5 -31 1 -57 -4 -25 -4 -53 0 -61 5 -7 13 -45
19 -83 6 -38 18 -76 26 -85 16 -18 19 -39 4 -39 -18 0 -10 -29 9 -35 14 -4 21
-17 23 -43 l3 -37 205 -3 c113 -2 220 0 238 3 37 7 34 25 -4 25 -23 0 -24 2
-12 23 7 12 11 26 10 30 -1 5 7 21 18 37 11 15 20 33 20 39 0 6 7 11 15 11 18
0 20 41 3 58 -8 8 -8 12 -1 12 6 0 8 11 5 25 -2 15 0 25 7 25 6 0 11 -11 11
-25 0 -13 7 -28 17 -33 18 -11 27 -60 13 -77 -5 -6 -8 -31 -6 -56 2 -24 0 -49
-6 -56 -6 -7 -5 -14 2 -18 6 -3 8 -11 5 -16 -4 -5 183 -9 480 -9 408 0 489 2
501 14 20 21 18 28 -21 59 -29 23 -34 33 -31 62 2 26 -1 34 -10 31 -22 -9 -28
16 -8 31 15 11 16 15 5 22 -11 7 -11 13 0 32 15 28 13 60 -6 75 -8 6 -10 15
-5 23 5 9 -3 39 -21 78 -16 36 -29 69 -29 73 0 5 12 10 28 12 32 4 82 -42 82
-74 0 -14 5 -18 15 -14 10 3 18 -1 21 -12 3 -9 11 -27 16 -39 6 -12 8 -29 4
-38 -4 -11 -2 -15 6 -13 15 5 45 -21 63 -55 7 -14 19 -58 26 -97 11 -66 11
-74 -4 -85 -16 -12 -16 -13 3 -18 16 -4 19 -11 14 -36 l-6 -31 1176 0 c934 0
1176 3 1176 13 0 9 2 9 9 -1 5 -8 22 -12 44 -10 l35 3 -26 64 c-21 53 -23 67
-13 83 10 16 10 23 -3 36 -8 10 -19 30 -25 45 -9 22 -8 29 5 34 12 5 10 11
-12 34 -20 20 -28 40 -28 63 0 26 -5 36 -19 40 -11 2 -17 11 -15 18 3 7 -3 24
-13 37 -11 13 -19 35 -19 48 0 14 -9 37 -20 53 -12 17 -21 49 -23 82 -3 30
-10 64 -16 76 -7 13 -11 54 -9 100 l3 77 38 3 c32 3 38 0 49 -25 7 -15 12 -32
13 -38 0 -5 9 -22 19 -37 23 -35 10 -60 -44 -82 -22 -9 -40 -19 -40 -22 0 -10
54 7 62 19 11 17 50 -32 42 -55 -3 -10 -2 -18 3 -18 5 0 7 -19 5 -42 -4 -34
-2 -40 11 -35 25 9 29 -6 6 -19 -22 -11 -22 -12 9 -19 27 -6 31 -10 26 -30 -4
-16 1 -30 15 -44 24 -24 27 -41 9 -42 -7 0 -3 -4 10 -9 14 -6 32 -29 44 -57
12 -27 30 -54 40 -62 11 -7 17 -20 14 -28 -4 -8 8 -27 28 -46 50 -46 80 -111
77 -164 l-3 -43 314 1 c172 0 307 3 301 6 -16 6 -17 24 -2 21 6 -2 14 3 16 10
3 7 -4 12 -16 12 -12 0 -21 6 -21 14 0 8 -17 28 -38 46 -21 18 -33 34 -27 38
19 14 17 42 -4 42 -10 0 -31 13 -44 30 -14 16 -30 30 -36 30 -14 0 -14 -27 -1
-35 19 -12 10 -22 -17 -23 -40 0 -66 32 -68 84 -1 45 12 80 21 57 7 -16 54
-69 54 -61 0 4 -8 23 -17 42 -13 29 -14 40 -5 62 11 22 10 26 -6 31 -25 6 -47
83 -24 83 14 0 14 1 0 12 -23 19 -29 45 -12 58 8 7 14 24 14 37 0 20 -4 24
-20 20 -16 -4 -19 0 -18 18 2 20 5 22 27 13 24 -9 25 -9 7 11 -17 18 -17 19 1
23 16 3 16 5 -4 16 -20 11 -23 10 -23 -3 0 -9 -4 -13 -10 -10 -5 3 -7 19 -3
35 4 24 2 30 -12 30 -11 0 -15 -5 -12 -14 8 -21 -15 -66 -35 -66 -24 0 -32 18
-16 37 9 12 10 15 0 9 -7 -4 -14 0 -18 11 -3 10 -10 27 -14 38 -27 62 -40 100
-40 117 0 36 -31 88 -57 94 -38 10 -55 84 -19 84 6 0 16 16 22 35 6 19 7 35 3
35 -5 0 -9 7 -9 15 0 8 -4 23 -9 33 -5 9 -16 40 -24 67 -13 43 -13 52 -1 66
16 18 18 35 4 44 -6 3 -7 -1 -4 -9 4 -11 0 -16 -11 -16 -16 0 -17 8 -13 63 4
45 2 66 -8 75 -8 7 -14 18 -14 25 0 7 7 3 15 -7 14 -19 15 -19 15 5 0 14 3 28
6 32 12 11 35 -23 29 -42 -3 -11 1 -25 10 -34 8 -9 15 -24 15 -34 0 -11 4 -23
9 -28 9 -9 22 -104 22 -152 -1 -12 4 -25 9 -28 5 -3 6 -13 3 -21 -10 -27 45
-114 74 -114 7 0 13 -4 13 -10 0 -5 -6 -10 -12 -10 -8 0 -9 -3 -3 -8 22 -16
37 -60 30 -91 -5 -26 -3 -36 14 -50 18 -15 20 -23 12 -44 -6 -16 -7 -29 -1
-32 5 -3 7 -12 3 -20 -3 -10 1 -15 15 -15 13 0 22 -9 26 -24 3 -13 19 -37 36
-52 21 -20 28 -34 24 -50 -3 -12 -1 -25 4 -28 6 -3 8 -14 5 -25 -3 -14 3 -21
26 -29 17 -6 31 -17 31 -25 0 -7 14 -29 30 -47 17 -18 30 -42 30 -52 0 -11 10
-20 25 -24 32 -8 64 -52 68 -94 2 -18 12 -37 21 -42 9 -5 14 -13 11 -19 -13
-21 -14 -53 -1 -78 19 -36 34 -100 33 -136 -2 -23 -7 -31 -24 -33 -24 -4 -30
-16 -13 -27 6 -3 10 -1 10 4 0 6 7 11 15 11 8 0 15 -4 15 -10 0 -6 398 -10
1095 -10 735 0 1095 3 1095 10 0 5 -6 10 -14 10 -23 0 -45 28 -39 50 3 13 0
20 -8 20 -11 0 -11 3 1 11 13 9 13 11 -1 21 -15 10 -14 13 4 35 11 12 26 23
32 23 6 0 20 7 31 16 10 8 14 13 7 10 -6 -4 -14 3 -18 14 -9 28 49 85 66 64 6
-8 17 -14 23 -14 6 0 12 -16 13 -36 1 -20 10 -53 19 -73 10 -20 17 -46 16 -57
-1 -12 9 -33 23 -46 24 -24 22 -40 -5 -51 -8 -3 29 -6 83 -6 l97 -1 -2 1442
c-3 1274 -5 1443 -18 1444 -8 1 -20 2 -27 3 -6 0 -19 9 -29 19 -10 9 -23 17
-29 17 -9 0 -44 20 -99 57 -10 7 -30 23 -43 35 -14 12 -34 25 -45 29 -11 3
-28 12 -37 19 -72 59 -81 69 -81 90 0 18 7 24 35 28 37 6 349 -18 365 -28 6
-4 10 196 10 538 l0 543 -25 22 c-14 12 -30 22 -35 22 -6 0 -20 9 -32 20 -11
10 -37 26 -57 36 -20 9 -48 22 -63 29 -16 8 -30 9 -34 4 -9 -15 -24 -10 -48
16 -22 23 -28 25 -124 23 -98 -2 -101 -2 -122 25 -15 18 -43 33 -93 48 -40 12
-83 29 -97 38 -36 24 -65 36 -155 62 -44 12 -84 26 -90 29 -21 14 -192 70
-232 76 -34 5 -44 3 -49 -10 -8 -22 -24 -20 -24 3 0 27 -28 34 -40 11 -17 -32
-29 -23 -23 15 6 37 -10 48 -34 24 -15 -15 -44 -4 -37 14 3 9 -9 18 -35 27
-23 7 -48 21 -57 32 -10 10 -23 18 -31 18 -8 0 -24 5 -36 12 -12 7 -30 13 -40
15 -10 2 -42 14 -71 27 -29 13 -75 31 -102 39 -27 8 -62 22 -79 31 -16 9 -37
16 -46 16 -8 0 -19 4 -25 9 -13 13 -117 41 -150 41 -15 0 -36 7 -45 16 -17 15
-20 15 -46 -1 -26 -17 -27 -17 -44 4 -21 26 -49 28 -49 3 0 -27 -11 -34 -25
-15 -8 11 -10 27 -4 45 10 36 0 41 -37 17 -39 -26 -47 -24 -39 10 5 23 2 29
-14 34 -12 3 -24 1 -27 -4 -8 -14 -44 -10 -44 5 0 40 -39 61 -190 106 -25 7
-49 18 -55 24 -5 6 -37 19 -70 30 -100 31 -149 49 -170 62 -11 7 -31 15 -45
17 -14 2 -38 9 -55 16 -86 35 -197 69 -249 75 -33 3 -71 15 -86 26 -36 25 -40
25 -40 -2 0 -13 -12 -34 -26 -48 -25 -23 -27 -24 -40 -5 -8 10 -14 26 -14 36
0 20 -25 43 -39 35 -5 -4 -12 -19 -16 -35 -3 -17 -16 -33 -31 -39 -26 -12 -26
-12 -14 43 1 6 2 24 1 40 -1 26 -5 31 -26 30 -13 0 -34 -8 -46 -18 -18 -16
-23 -17 -35 -5 -12 12 -12 19 2 47 20 40 14 47 -25 31 -20 -8 -48 -10 -81 -5
l-51 7 16 25 c15 23 15 26 -2 38 -10 7 -21 11 -25 9 -5 -3 -8 -1 -8 4 0 6 -11
13 -24 16 -13 3 -35 21 -48 39 -21 27 -25 43 -25 97 0 36 -8 98 -18 139 -17
70 -17 76 -2 103 19 32 23 93 7 103 -11 7 -70 127 -70 143 0 6 -23 54 -50 107
-28 53 -48 100 -45 105 6 9 -75 158 -104 192 -8 9 -32 49 -54 90 -38 70 -156
206 -220 255 -33 25 -87 98 -116 158 -18 37 -80 85 -109 85 -6 0 -34 16 -64
35 -29 20 -73 41 -97 47 -31 8 -48 19 -60 39 -9 16 -22 29 -29 29 -7 0 -15 7
-18 15 -4 8 -12 15 -19 15 -8 0 -37 23 -66 50 -29 28 -57 50 -63 51 -32 2 -50
9 -58 23 -7 12 -24 16 -67 15 -31 -1 -67 1 -78 5 -12 4 -24 2 -28 -4 -3 -5
-28 -10 -54 -10 -41 0 -54 5 -85 35 -21 19 -40 35 -44 35 -4 0 -34 5 -67 10
-98 17 -145 19 -174 8 -14 -5 -52 -10 -83 -9 -31 1 -59 -3 -63 -9 -10 -17 -27
-11 -21 8 4 13 0 17 -20 19 -15 0 -38 7 -51 14 -18 10 -29 10 -42 2 -12 -7
-23 -8 -35 -1 -28 16 -262 16 -277 1 -7 -7 -22 -13 -33 -13 -27 0 -98 -25
-156 -54 -216 -108 -364 -174 -410 -181 -25 -4 -50 -11 -56 -16 -7 -5 -28 -10
-48 -11 -27 -1 -33 -4 -25 -14 7 -9 2 -16 -20 -27 -18 -9 -33 -11 -37 -6 -9
15 -24 10 -18 -6 4 -10 0 -15 -15 -15 -12 0 -21 -5 -21 -10 0 -6 -3 -9 -7 -8
-12 2 -47 -14 -55 -26 -4 -6 -8 -21 -8 -34 0 -13 -20 -43 -46 -71 -43 -46 -63
-55 -80 -38 -14 14 -19 6 -20 -28 0 -35 -23 -68 -57 -87 -13 -7 -25 -5 -42 6
-14 9 -31 16 -40 16 -21 0 -75 28 -75 39 0 5 9 11 21 14 28 7 15 27 -17 27
-14 0 -23 4 -19 10 3 5 13 6 23 3 9 -3 14 -3 10 2 -4 4 4 14 18 22 31 15 48
17 39 3 -3 -6 0 -17 8 -25 9 -8 17 -20 20 -27 2 -7 8 -9 13 -5 5 4 2 12 -5 17
-19 11 -6 40 19 40 11 0 20 -4 20 -10 0 -5 7 -10 16 -10 8 0 12 -4 9 -10 -3
-5 1 -10 9 -10 12 0 16 10 16 36 0 33 -2 36 -24 30 -15 -4 -26 -1 -28 6 -3 8
-24 13 -56 13 -29 0 -52 2 -52 5 0 3 -39 4 -88 4 -128 -3 -199 13 -227 51 -21
27 -42 111 -36 143 1 8 -3 20 -9 27 -7 8 -13 31 -15 52 -2 21 -6 54 -10 73 -4
19 -7 65 -8 103 -1 46 -5 67 -14 67 -9 0 -11 9 -7 30 4 17 1 36 -5 44 -8 10
-10 30 -5 62 5 33 3 45 -4 40 -7 -4 -9 6 -6 33 2 22 0 42 -6 46 -5 3 -10 16
-10 29 0 12 -5 27 -11 33 -8 8 -8 17 0 32 7 12 8 21 2 21 -5 0 -8 6 -8 13 2
23 -16 132 -23 142 -11 14 -10 105 1 105 5 0 9 -5 9 -11 0 -6 9 -8 20 -4 11 4
20 2 20 -4 0 -6 5 -11 11 -11 5 0 7 5 4 11 -5 7 -1 8 11 1 56 -28 99 -41 156
-48 34 -3 73 -12 85 -20 12 -8 29 -11 38 -7 10 3 20 1 24 -6 4 -6 30 -13 57
-15 39 -2 48 -6 46 -19 -2 -11 4 -17 16 -17 10 0 22 -3 25 -6 4 -4 26 -8 49
-11 23 -2 58 -6 78 -9 19 -3 66 -8 104 -10 39 -3 76 -10 83 -16 7 -6 13 -7 13
-3 0 4 6 3 13 -3 6 -5 37 -13 68 -16 31 -4 78 -14 105 -23 27 -8 67 -19 89
-23 22 -4 72 -15 110 -23 39 -9 83 -18 97 -21 31 -5 68 -24 68 -34 0 -18 62
-31 140 -30 47 0 114 -6 150 -15 36 -8 103 -23 150 -32 47 -9 103 -22 125 -28
22 -6 49 -12 60 -14 105 -15 133 -21 155 -33 16 -8 64 -15 129 -16 58 -2 110
-5 118 -8 7 -3 17 3 22 12 6 9 11 12 11 7 0 -14 54 -37 77 -33 10 2 18 -3 19
-9 1 -7 2 -16 3 -19 0 -4 12 1 26 10 13 9 32 16 42 16 15 0 13 4 -9 24 -15 12
-26 25 -23 27 2 3 -5 10 -15 17 -12 7 -20 8 -20 2 0 -5 6 -10 13 -10 8 0 7 -3
-3 -9 -10 -7 -18 -4 -28 10 -14 20 -42 26 -42 9 0 -5 -4 -10 -10 -10 -5 0 -10
6 -10 14 0 17 -50 28 -66 15 -7 -6 -43 -12 -82 -14 -65 -5 -71 -3 -98 22 -16
15 -38 29 -49 30 -89 10 -173 38 -203 69 -13 13 -30 24 -38 24 -8 0 -36 7 -62
15 -26 9 -81 22 -122 29 -41 8 -86 17 -100 21 -68 17 -90 18 -96 2 -3 -9 -11
-14 -19 -11 -7 3 -15 -2 -18 -10 -9 -24 -41 -21 -34 3 5 21 -18 32 -78 37 -35
3 -154 42 -172 56 -7 5 -16 7 -22 4 -5 -4 -11 4 -13 16 -2 16 -13 25 -38 33
-19 5 -41 14 -49 19 -19 12 -156 47 -202 51 -20 2 -52 13 -71 23 -20 12 -45
18 -60 15 -14 -3 -29 0 -32 6 -11 17 -73 13 -102 -6 -24 -15 -28 -15 -77 4
-29 11 -88 28 -132 38 -101 23 -133 39 -137 67 -2 18 -12 25 -45 32 -26 5 -43
14 -43 23 0 9 -10 13 -33 11 -19 -1 -52 8 -76 20 -23 12 -57 22 -76 22 -19 0
-35 5 -35 11 0 6 -9 9 -20 6 -11 -3 -18 -2 -15 3 3 4 -2 13 -10 20 -8 7 -15
21 -15 31 0 13 -7 19 -21 19 -18 0 -20 -4 -14 -30 6 -26 4 -30 -15 -30 -11 0
-23 7 -26 15 -4 8 -12 15 -20 15 -8 0 -14 4 -14 9 0 5 -15 5 -35 1 -39 -9 -75
-3 -75 12 0 6 -7 8 -15 5 -8 -4 -17 -1 -21 5 -4 7 -9 6 -15 -3 -6 -10 -9 -11
-9 -1 0 6 -4 12 -10 12 -5 0 -10 -7 -10 -15 0 -19 -42 -43 -48 -26 -2 6 -11
11 -20 11 -27 0 -237 52 -246 61 -6 5 -19 9 -31 9 -19 0 -94 35 -105 49 -11
14 -51 31 -72 31 -23 0 -94 22 -133 40 -25 12 -105 34 -124 35 -21 0 -26 26
-7 37 9 5 16 14 16 21 0 7 -4 6 -10 -3 -5 -8 -12 -11 -16 -7 -4 4 -1 14 8 23
14 14 16 12 28 -15 12 -31 33 -40 45 -21 3 6 1 10 -4 10 -6 0 -11 7 -11 16 0
11 5 14 16 10 9 -4 23 -1 30 5 11 9 14 7 14 -12 0 -18 3 -20 9 -10 5 8 7 20 4
27 -8 20 56 33 87 18 13 -8 27 -11 30 -7 3 3 -1 8 -7 10 -7 3 -13 11 -13 19 0
19 39 18 60 -1 14 -13 26 -14 61 -6 26 6 45 6 47 1 2 -5 14 -4 27 2 24 11 35
34 35 76 0 14 6 22 18 23 16 0 16 1 -1 7 -16 7 -16 9 4 25 11 10 18 25 15 32
-3 8 -1 17 4 20 5 3 11 -4 15 -15 8 -24 41 -19 63 8 8 11 12 12 12 3 0 -7 -7
-19 -15 -27 -25 -26 -17 -35 18 -21 22 10 37 11 48 4 19 -12 72 -1 64 13 -3 6
3 10 14 10 14 0 21 -6 21 -18 0 -10 6 -24 13 -31 9 -10 9 -15 0 -18 -7 -3 -10
-17 -6 -39 5 -30 3 -36 -16 -41 -11 -3 -21 -9 -21 -14 0 -12 4 -11 34 2 23 11
43 60 31 79 -3 4 4 10 15 13 10 3 21 0 23 -7 3 -6 10 1 16 17 6 15 15 27 20
27 5 0 16 12 26 26 18 27 7 26 -27 -3 -17 -15 -58 -10 -58 8 0 16 -18 10 -23
-8 -3 -10 -5 -2 -6 17 -1 56 28 81 63 51 14 -12 20 -13 23 -3 3 7 11 19 19 26
8 8 14 19 14 25 0 14 17 14 25 1 3 -5 -3 -15 -15 -22 -11 -7 -20 -21 -20 -32
0 -16 5 -18 40 -12 36 6 40 4 40 -14 0 -11 7 -20 15 -20 18 0 20 -16 3 -26 -6
-4 -14 -2 -16 4 -5 15 -42 16 -42 2 0 -5 -7 -10 -15 -10 -8 0 -15 -4 -15 -10
0 -5 7 -10 15 -10 8 0 20 -9 27 -20 7 -11 17 -20 21 -20 5 0 24 -14 42 -31 27
-26 31 -35 23 -49 -6 -10 -8 -26 -4 -36 9 -23 6 -28 -18 -30 -11 0 -22 -6 -24
-12 -2 -7 -12 -12 -23 -12 -19 0 -25 -11 -12 -23 3 -4 13 -2 20 5 11 9 16 9
22 -1 5 -7 17 -11 27 -9 13 2 20 -4 22 -19 3 -23 -12 -31 -23 -13 -3 6 -17 7
-31 4 -13 -3 -24 -2 -24 4 0 5 -18 9 -40 8 -39 -2 -55 10 -41 33 4 6 15 9 23
6 9 -4 19 -1 24 6 4 7 3 14 -4 17 -6 2 -8 11 -5 20 6 15 4 15 -9 4 -12 -10
-18 -10 -23 -1 -6 8 -10 7 -16 -2 -6 -10 -9 -6 -9 14 0 15 -4 27 -10 27 -5 0
-10 -12 -10 -27 l0 -26 -25 23 c-14 13 -25 19 -25 13 0 -16 29 -70 46 -84 10
-9 13 -21 8 -43 -6 -27 -5 -29 9 -17 10 7 22 9 29 5 7 -5 15 -9 18 -10 11 -2
46 -16 63 -25 12 -6 17 -5 17 3 0 6 6 4 13 -7 8 -10 19 -15 26 -11 14 9 61
-33 61 -54 0 -13 -1 -13 -10 0 -8 13 -10 13 -10 -1 0 -26 27 -44 44 -29 8 6
12 18 9 26 -7 18 26 31 37 14 5 -8 10 -9 14 -2 8 13 87 8 115 -8 12 -6 21 -17
21 -25 0 -7 5 -17 10 -20 6 -4 9 -1 8 7 -2 7 6 13 17 13 36 0 46 13 32 38 -8
12 -13 32 -12 44 2 17 -5 23 -32 28 -19 3 -50 15 -69 26 -20 11 -40 16 -46 13
-7 -4 -8 -2 -4 4 5 8 0 12 -13 12 -12 0 -21 -7 -21 -15 0 -8 -4 -15 -10 -15
-5 0 -10 7 -10 15 0 8 -10 17 -23 20 -28 7 -54 65 -34 77 9 6 9 10 0 19 -9 9
-10 16 -2 26 9 10 8 13 -2 13 -9 0 -10 3 -2 11 14 14 0 75 -17 71 -9 -2 -9 4
3 22 11 16 15 35 11 55 -4 19 -2 31 4 31 6 0 17 3 25 6 10 3 20 -5 30 -25 11
-21 12 -31 3 -34 -28 -10 7 -18 52 -12 38 5 51 11 55 26 3 10 11 19 17 19 7 0
10 -7 6 -16 -4 -10 1 -22 11 -30 16 -12 16 -13 1 -14 -9 0 -19 -6 -22 -12 -3
-9 -8 -8 -16 5 -9 14 -15 16 -26 6 -19 -15 -18 -29 2 -29 9 0 14 -6 11 -13 -3
-7 4 -19 15 -26 17 -11 22 -10 29 1 12 18 11 28 -3 28 -6 0 -2 10 9 23 12 12
23 31 25 42 4 18 6 18 16 -6 5 -14 22 -33 36 -42 14 -10 26 -26 26 -36 0 -31
11 -51 29 -51 14 1 14 2 -1 14 -39 29 0 80 40 55 15 -10 24 -9 40 2 20 14 19
15 -18 15 -40 0 -85 28 -74 45 3 5 0 9 -5 9 -6 0 -11 -7 -11 -15 0 -11 -6 -12
-22 -6 -13 5 -23 17 -23 27 0 12 -8 20 -23 22 -20 3 -23 8 -17 30 8 34 9 34
29 26 9 -4 15 -13 12 -21 -4 -8 4 -17 22 -24 22 -9 29 -7 43 10 9 11 19 18 21
15 11 -10 55 22 52 39 -1 10 4 21 12 24 10 4 11 10 4 23 -12 23 5 37 24 21 7
-6 16 -8 19 -4 4 3 7 1 7 -5 0 -7 11 -12 25 -12 15 0 25 -6 25 -15 0 -10 9
-14 25 -13 21 2 23 6 18 28 -7 32 -10 35 -36 37 -40 3 -61 10 -65 21 -3 9 5 9
28 0 26 -8 34 -8 41 3 6 9 12 10 17 4 4 -5 14 -10 22 -10 8 0 14 -8 14 -17 -2
-24 13 -23 21 2 14 45 84 7 99 -54 4 -15 10 -26 13 -22 3 3 11 2 17 -4 7 -5
18 -5 26 0 12 7 12 12 2 22 -6 6 -12 21 -13 33 -1 17 -2 17 -8 -4 -11 -42 -29
-35 -29 11 -1 23 -6 44 -11 46 -14 5 -14 42 -1 42 6 0 10 -4 10 -8 0 -4 10 -8
23 -9 20 -2 21 -1 5 11 -19 14 -26 42 -8 31 6 -4 10 7 10 24 0 17 4 31 8 31 5
0 8 -18 8 -40 -1 -26 3 -40 12 -40 11 0 16 -19 13 -47 -2 -14 43 -28 59 -18 7
4 5 11 -5 21 -21 22 -19 61 4 74 27 14 31 13 25 -7 -5 -17 -5 -17 9 0 17 21
50 22 67 2 17 -21 54 -20 46 1 -3 9 -6 18 -6 20 0 2 -8 4 -19 4 -10 0 -21 8
-24 19 -3 14 1 18 22 17 23 -1 26 3 23 27 -2 18 2 27 11 27 17 0 29 -58 13
-63 -5 -2 -6 -9 -2 -15 12 -20 26 -3 26 32 0 26 5 35 22 39 40 11 10 20 -72
22 -77 2 -79 1 -74 -19 3 -14 -2 -28 -15 -40 -12 -11 -21 -14 -21 -8 0 6 4 14
10 17 11 7 -16 55 -30 55 -5 0 -15 -7 -24 -15 -8 -8 -19 -15 -24 -15 -6 0 -13
-6 -15 -12 -3 -8 -6 -6 -6 4 -1 9 7 22 16 27 16 9 14 10 -8 11 -32 0 -44 -23
-27 -50 9 -14 19 -18 38 -13 25 6 25 6 6 -15 l-18 -21 -29 28 c-19 20 -26 35
-22 50 5 19 1 21 -31 21 -42 0 -46 -7 -10 -20 14 -6 22 -15 19 -21 -4 -6 -14
-8 -22 -5 -9 4 -21 2 -27 -3 -8 -6 -11 -2 -12 16 -3 34 -11 39 -32 20 -10 -10
-23 -17 -28 -17 -5 0 0 7 10 15 19 14 18 15 -17 15 -26 0 -37 -4 -37 -15 0
-19 -19 -20 -26 0 -4 9 -18 14 -40 13 -27 -1 -32 -4 -23 -15 9 -10 8 -13 -5
-13 -9 0 -16 7 -16 15 0 13 -24 15 -160 15 -138 0 -159 -2 -154 -15 4 -9 0
-15 -10 -15 -9 0 -16 7 -16 15 0 13 -93 15 -735 15 l-735 0 0 -401z m4755
-2573 c17 -7 47 -33 67 -57 21 -24 47 -53 58 -65 11 -12 20 -27 20 -33 0 -7
18 -30 40 -52 22 -22 38 -44 35 -49 -3 -4 15 -18 40 -30 44 -21 51 -31 58 -88
2 -13 8 -27 14 -30 6 -4 14 -18 18 -32 7 -22 9 -35 14 -77 0 -7 7 -13 14 -13
9 0 14 -14 15 -37 1 -21 6 -49 11 -63 5 -14 15 -47 22 -75 7 -27 30 -88 52
-135 42 -91 100 -260 112 -323 6 -37 23 -78 66 -159 10 -20 19 -46 19 -57 0
-12 4 -21 10 -21 11 0 50 -83 56 -120 2 -14 7 -36 10 -50 4 -14 8 -34 9 -45 1
-11 5 -44 9 -74 l8 -54 19 24 c18 24 26 55 12 46 -5 -3 -6 38 -3 90 5 87 7 97
27 104 15 5 23 3 27 -7 3 -8 15 -14 26 -14 15 0 20 7 20 29 0 16 7 34 15 41
13 11 18 10 30 -6 8 -10 15 -23 15 -28 0 -5 7 -17 15 -26 18 -20 27 -127 11
-137 -21 -14 -41 -8 -65 17 l-23 25 6 -25 c3 -14 6 -34 6 -46 0 -13 12 -26 35
-37 18 -9 41 -27 50 -41 16 -24 31 -152 40 -341 4 -76 3 -86 -8 -66 -14 30
-54 71 -67 71 -6 0 -10 -11 -10 -25 0 -14 -20 -50 -46 -85 -42 -53 -46 -63
-41 -99 3 -22 12 -53 20 -70 12 -24 14 -65 12 -198 -1 -92 -5 -185 -9 -205
-13 -76 -37 -168 -62 -240 -44 -123 -43 -135 15 -153 17 -5 21 -4 16 5 -6 9
-2 9 16 0 17 -10 24 -10 27 -1 5 14 39 15 47 0 4 -6 26 -10 49 -9 75 3 106 0
106 -10 0 -5 -20 -10 -45 -10 -39 0 -45 -3 -45 -21 0 -15 5 -19 15 -15 9 3 15
0 15 -10 0 -14 -28 -16 -40 -3 -3 3 -21 13 -42 22 -36 17 -67 23 -55 10 4 -3
2 -12 -5 -20 -9 -11 -14 -11 -30 4 -18 16 -19 16 -25 -5 -3 -15 -11 -21 -22
-18 -9 3 -29 8 -46 11 -26 5 -27 4 -7 -4 24 -11 31 -41 9 -41 -9 0 -12 -10 -9
-30 5 -35 22 -41 22 -7 0 17 2 19 9 8 6 -9 6 -22 0 -34 -6 -10 -8 -25 -5 -33
3 -8 1 -14 -4 -14 -19 0 8 -45 27 -46 11 -1 26 -4 32 -8 7 -4 17 -3 24 3 17
13 77 11 77 -3 0 -6 7 -3 14 7 15 19 36 23 36 6 0 -8 5 -8 15 1 12 10 18 10
30 0 21 -17 29 -7 16 19 -10 17 -9 20 4 15 8 -4 15 -10 15 -15 0 -16 27 -9 52
14 24 22 63 29 86 14 15 -10 54 1 47 14 -4 5 -1 9 6 9 8 0 6 6 -4 18 -21 23
-22 38 -3 45 9 4 17 -2 21 -14 8 -23 57 -47 63 -29 5 14 72 2 95 -18 17 -15
21 -11 17 21 -1 16 5 18 46 16 46 -3 49 -1 68 31 15 26 16 32 4 22 -12 -10
-18 -10 -28 2 -6 9 -9 20 -5 27 6 8 9 8 15 0 5 -8 14 -9 33 -2 22 9 27 8 27
-4 0 -8 -4 -15 -10 -15 -5 0 -10 -18 -10 -40 0 -22 5 -40 10 -40 6 0 10 18 10
40 0 22 3 40 8 40 4 0 12 10 17 22 9 20 18 23 70 24 33 1 65 -2 71 -8 7 -5 26
-10 44 -13 17 -2 38 -9 45 -15 8 -7 19 -9 25 -5 5 3 10 2 10 -4 0 -5 9 -12 20
-16 11 -3 19 -11 17 -17 -4 -20 21 -19 28 1 7 24 43 37 58 22 8 -8 4 -11 -14
-12 -13 0 -18 -3 -11 -6 10 -4 8 -8 -5 -18 -28 -21 -8 -28 27 -10 26 14 34 14
47 3 14 -11 16 -10 9 15 -5 20 -3 27 9 27 8 0 15 -6 16 -12 0 -10 2 -10 6 0 2
6 9 12 14 12 6 0 7 -5 3 -12 -5 -8 -2 -9 12 -4 44 18 57 20 49 5 -8 -12 -6
-12 8 -1 9 8 21 11 27 7 18 -11 11 -25 -12 -26 l-23 0 22 -11 c12 -6 28 -8 35
-6 7 3 17 6 22 6 5 0 13 6 17 14 7 11 11 10 19 -2 7 -10 13 -11 18 -5 9 13 69
18 85 8 7 -5 41 -8 77 -9 118 -2 350 -15 515 -29 220 -19 424 -35 495 -40 47
-3 114 -10 150 -15 36 -5 126 -12 200 -15 154 -8 219 -18 230 -35 4 -7 6 -47
4 -89 -2 -42 -5 -138 -5 -213 -2 -129 -3 -140 -25 -163 -13 -14 -19 -25 -14
-25 6 0 10 -7 10 -15 0 -8 -6 -15 -14 -15 -8 0 -13 -8 -12 -17 1 -20 -80 -69
-131 -79 -18 -3 -33 -12 -33 -19 0 -7 -7 -16 -16 -19 -11 -4 -14 -13 -11 -27
7 -28 -2 -49 -21 -49 -13 0 -12 2 3 14 18 13 17 14 -16 21 -19 4 -38 11 -44
15 -21 15 -78 20 -93 8 -8 -7 -29 -11 -48 -9 -19 1 -34 -2 -34 -8 0 -6 -14
-11 -31 -11 -38 0 -69 -16 -69 -35 0 -8 9 -15 20 -15 13 0 18 -5 14 -15 -4 -9
-19 -15 -40 -15 -22 0 -37 -6 -40 -15 -8 -20 -20 -19 -43 6 l-19 21 -12 -22
c-9 -16 -9 -25 1 -36 10 -12 10 -17 0 -27 -10 -9 -14 -8 -22 6 -6 9 -18 17
-27 17 -10 0 -28 8 -42 17 -24 17 -61 22 -167 24 -50 1 -53 2 -53 25 0 14 -4
34 -10 44 -8 16 -15 17 -52 8 -28 -6 -57 -6 -85 1 -54 14 -93 14 -93 0 0 -6
-13 -9 -28 -8 -17 2 -36 -3 -46 -13 -9 -10 -22 -15 -29 -12 -34 13 -112 -65
-89 -88 22 -22 92 -21 151 2 95 35 101 19 9 -28 -100 -51 -135 -53 -222 -13
-34 17 -76 33 -92 37 -16 4 -34 11 -41 16 -7 5 -22 11 -35 13 -13 2 -56 10
-96 19 -40 9 -118 16 -172 16 -54 0 -101 4 -105 10 -3 5 -12 7 -20 4 -8 -3
-30 3 -48 15 -19 11 -37 18 -40 15 -10 -10 -67 17 -67 32 0 7 -6 11 -14 8 -8
-3 -17 0 -21 5 -3 6 -11 9 -16 6 -5 -4 -9 -1 -9 4 0 6 -7 11 -15 11 -8 0 -15
4 -15 9 0 18 -215 110 -227 97 -4 -4 -2 -20 4 -36 9 -23 8 -30 -4 -35 -16 -6
-48 25 -58 55 -6 18 -33 34 -120 70 -37 16 -80 23 -165 27 -63 3 -120 9 -126
14 -6 5 -14 6 -18 2 -10 -10 -64 46 -71 74 -7 28 -113 173 -126 173 -5 0 -9 7
-9 15 0 8 -7 15 -15 15 -21 0 -30 -4 -28 -11 1 -4 9 -40 18 -80 37 -174 55
-289 56 -354 0 -79 -37 -238 -70 -300 -11 -22 -21 -46 -21 -53 0 -7 -13 -42
-30 -77 -16 -35 -30 -68 -30 -74 0 -5 -15 -35 -33 -68 -17 -32 -43 -83 -57
-113 -13 -30 -36 -73 -51 -95 -28 -43 -47 -101 -29 -90 5 3 10 13 10 21 0 8 5
14 10 14 6 0 10 7 10 15 0 8 5 15 10 15 6 0 10 6 10 13 0 31 118 173 139 169
12 -3 12 -1 3 10 -9 12 -7 20 11 39 12 13 22 28 22 34 1 5 9 22 19 37 10 15
14 33 10 40 -5 10 -4 10 5 2 10 -9 10 -17 2 -33 -6 -11 -16 -44 -21 -73 -6
-28 -15 -55 -21 -59 -7 -4 -9 -19 -7 -34 6 -30 -5 -56 -89 -213 -44 -82 -67
-109 -103 -117 -16 -3 -31 -13 -34 -21 -7 -18 8 -18 44 1 32 17 35 14 20 -13
-33 -59 -57 -124 -53 -144 7 -38 -19 -53 -56 -33 -17 8 -37 24 -44 35 -6 11
-20 20 -29 20 -23 0 -23 8 0 33 12 15 14 21 5 24 -20 7 -15 23 6 23 24 0 66
34 58 47 -8 13 -66 4 -94 -15 -13 -8 -23 -22 -23 -31 0 -10 -13 -29 -28 -44
-28 -27 -64 -35 -159 -37 -21 0 -33 -5 -33 -14 0 -23 42 -68 76 -82 l33 -14
-13 -42 c-17 -56 -38 -101 -51 -110 -15 -11 -25 -9 -25 5 0 7 -9 18 -20 25
-12 7 -18 17 -15 22 3 6 1 10 -6 10 -7 0 -9 8 -4 23 4 12 8 35 10 51 2 16 9
32 16 37 8 4 10 11 5 16 -8 9 -25 -17 -41 -61 -14 -41 -35 -46 -35 -8 0 36 -9
45 -28 30 -11 -10 -16 -9 -23 5 -6 9 -18 17 -27 18 -10 0 -12 3 -4 6 6 2 12
11 12 19 0 12 -24 18 -67 17 -7 -1 -13 7 -13 17 0 13 -13 21 -50 30 -52 12
-75 36 -64 64 7 19 -6 20 -40 4 -21 -9 -29 -8 -44 5 -10 10 -22 17 -25 17 -17
0 -88 85 -84 100 4 17 -28 45 -42 36 -10 -7 -171 146 -171 162 0 6 -5 12 -11
12 -8 0 -8 5 1 15 7 8 18 15 25 15 7 0 18 7 26 16 8 10 21 13 36 9 16 -4 25
-1 30 11 4 12 14 14 37 10 17 -3 38 -2 46 4 9 6 19 5 28 -2 10 -9 15 -9 21 0
4 7 16 12 27 11 41 -4 62 2 88 26 15 14 31 23 36 20 5 -3 17 3 27 15 10 11 27
19 38 19 17 -1 17 -2 2 -6 -9 -2 -14 -9 -11 -14 4 -6 13 -4 25 7 10 9 25 14
34 11 10 -5 15 0 15 13 0 10 7 23 16 28 20 11 37 84 22 93 -14 9 -21 66 -8 74
6 3 10 17 10 31 0 24 22 54 88 122 17 19 32 37 32 41 0 3 9 11 20 16 102 51
151 80 167 97 21 24 21 24 -67 -18 -109 -52 -139 -61 -151 -42 -4 6 -17 4 -32
-7 -15 -9 -31 -14 -38 -10 -6 4 -21 3 -32 -3 -50 -25 -130 -42 -143 -31 -8 6
-25 8 -40 5 -26 -7 -102 13 -155 40 -14 7 -41 15 -61 17 -19 2 -41 8 -49 13
-8 5 -21 7 -31 6 -9 -2 -19 2 -23 8 -3 5 -16 10 -29 10 -12 0 -26 4 -32 8 -5
5 -29 14 -54 21 -62 18 -102 48 -95 71 4 12 0 19 -11 22 -23 4 -26 107 -4 125
13 11 12 12 -6 13 -21 0 -38 22 -27 34 11 11 24 6 17 -6 -5 -8 0 -9 14 -6 15
4 22 2 22 -8 0 -12 8 -13 38 -8 20 4 38 10 40 15 2 4 18 5 36 2 22 -3 46 2 74
16 23 12 50 21 60 21 11 0 25 7 32 15 7 8 16 13 20 10 10 -6 119 19 148 34 11
6 30 11 41 11 12 0 40 9 64 19 23 11 60 25 82 33 22 7 42 16 45 19 3 3 22 14
43 24 20 9 37 21 37 26 0 12 -8 11 -58 -6 -24 -9 -48 -13 -53 -10 -5 4 -9 1
-9 -4 0 -6 -16 -11 -36 -11 -19 0 -43 -4 -52 -9 -9 -5 -45 -11 -80 -14 -34 -3
-66 -9 -72 -12 -6 -3 -13 1 -16 9 -3 9 -11 16 -16 16 -6 0 -7 -7 -4 -16 5 -13
1 -14 -27 -9 -17 4 -35 12 -38 18 -4 5 -16 7 -27 5 -13 -4 -27 2 -39 14 -22
25 -57 40 -103 45 -19 2 -58 15 -86 28 -40 20 -56 23 -82 16 -20 -6 -34 -6
-38 0 -3 6 3 13 14 16 11 2 22 13 25 24 3 11 14 19 25 19 12 0 24 5 27 10 4 6
15 8 25 5 11 -3 31 2 47 12 18 12 47 18 88 19 105 1 186 22 200 51 5 12 18 25
30 28 13 4 16 8 7 12 -7 3 -19 -1 -28 -8 -16 -13 -95 -16 -114 -4 -19 11 -1
57 32 87 32 28 86 45 113 34 8 -3 15 -1 15 4 0 6 5 10 12 10 14 0 117 50 123
60 6 9 -169 5 -207 -5 -18 -5 -28 -3 -28 4 0 6 6 11 13 11 8 0 7 3 -3 10 -10
6 -17 5 -23 -6 -7 -12 -12 -13 -23 -3 -11 9 -18 9 -26 1 -8 -8 -14 -7 -23 5
-13 17 -21 15 -155 -33 -117 -41 -284 -68 -302 -47 -6 7 -18 13 -28 13 -9 0
-25 9 -35 20 -17 19 -52 29 -41 12 3 -5 -8 -6 -24 -4 -21 3 -31 -1 -40 -17 -6
-12 -15 -19 -20 -16 -5 3 -24 -3 -43 -14 -24 -13 -39 -16 -50 -9 -10 5 -15 13
-12 18 3 5 -4 11 -15 15 -11 3 -20 13 -20 21 0 8 -4 14 -10 14 -5 0 -10 -4
-10 -10 0 -5 -10 -9 -22 -9 -18 1 -19 2 -5 6 16 4 16 6 -3 33 -11 15 -20 32
-20 38 0 5 -7 15 -15 22 -11 9 -15 9 -15 1 0 -8 -5 -8 -16 1 -29 24 -49 45
-61 64 -7 10 -12 15 -12 9 3 -23 -2 -26 -17 -11 -8 9 -12 20 -9 26 3 5 1 10
-4 10 -6 0 -11 -7 -11 -15 0 -8 -5 -15 -11 -15 -7 0 -9 9 -5 24 7 27 -6 41
-47 51 -15 4 -27 14 -27 23 0 19 -49 72 -66 72 -7 0 -17 6 -21 13 -4 8 -16 16
-25 20 -10 3 -18 13 -18 21 0 8 -18 23 -40 33 -22 10 -40 22 -40 26 0 16 -29
37 -49 37 -16 0 -21 6 -21 25 0 14 -4 25 -10 25 -21 0 -50 41 -50 71 0 19 -7
37 -17 45 -17 12 -17 14 -1 41 15 27 15 29 -8 46 -14 10 -24 28 -24 42 0 14
-7 25 -17 27 -13 2 -20 21 -28 81 -6 42 -7 83 -3 91 4 7 29 17 55 22 49 8 57
9 71 14 4 2 12 4 17 5 31 5 53 18 67 42 10 18 35 35 66 47 30 12 48 24 45 32
-2 7 2 25 11 42 14 28 18 29 99 34 91 6 133 22 167 65 22 28 23 58 5 118 -4
15 1 23 22 33 43 19 82 14 130 -18 24 -17 49 -28 54 -25 5 4 9 -1 9 -10 0 -13
6 -15 33 -10 45 10 57 23 57 61 0 19 2 34 4 34 21 0 96 -45 101 -60 4 -11 15
-20 25 -20 10 0 22 -4 25 -10 7 -11 45 -13 69 -4 29 11 21 110 -14 179 -16 32
-30 65 -30 72 0 7 -11 13 -25 13 -16 0 -25 6 -25 15 0 9 -6 15 -12 14 -7 -1
-35 8 -61 19 -27 12 -61 25 -75 28 -15 4 -38 12 -52 19 -14 7 -43 20 -65 29
-22 9 -56 25 -75 35 -19 10 -80 24 -135 31 -55 6 -127 16 -160 22 -33 5 -105
12 -160 14 -55 3 -115 9 -133 15 -25 8 -37 8 -45 0 -16 -16 -27 -14 -21 4 4 9
0 15 -10 15 -10 0 -13 -5 -9 -16 5 -14 3 -15 -14 -6 -12 7 -25 7 -34 1 -18
-11 -59 -12 -59 0 0 5 7 11 15 15 8 3 15 12 15 20 0 9 -6 13 -14 10 -9 -3 -17
3 -21 15 -3 12 -14 25 -24 30 -13 7 -18 24 -20 57 0 26 -6 53 -12 60 -7 8 -7
19 -1 31 6 10 8 30 5 45 -3 18 1 32 16 47 12 12 21 32 21 45 0 14 9 31 21 39
11 8 20 21 19 28 -5 30 1 39 25 39 14 0 29 8 35 20 6 11 15 20 20 20 15 0 47
35 65 70 9 17 27 35 40 40 13 5 26 18 29 28 4 11 22 30 41 43 18 13 31 27 29
31 -3 5 8 11 25 14 17 4 33 14 36 24 3 10 14 20 25 23 13 3 17 11 13 26 -4 17
-1 21 16 21 12 0 20 4 17 8 -6 10 29 42 45 42 5 0 21 11 34 24 l23 24 7 -27 7
-26 18 22 c9 12 21 19 24 15 4 -3 10 -2 14 4 10 15 110 64 131 64 10 0 26 9
36 20 10 11 24 20 30 20 7 0 18 6 24 14 14 16 112 66 130 66 7 0 19 7 28 15 9
9 23 13 34 10 14 -5 19 -1 19 14 0 21 32 47 93 75 20 9 37 20 37 24 0 4 33 8
73 8 39 1 86 7 102 14 17 7 34 12 39 11 5 -1 16 5 25 12 31 28 135 44 158 25
19 -16 162 -21 179 -7 9 7 50 11 107 10 50 0 108 3 127 8 40 11 112 5 155 -13z
m-3397 -111 c-1 -24 4 -50 10 -57 13 -16 53 -208 46 -219 -3 -5 -28 4 -57 19
-49 26 -52 30 -64 82 -14 64 -19 162 -8 180 4 6 17 9 30 6 18 -5 25 -1 30 14
10 31 13 24 13 -25z m43 -419 c47 -43 54 -60 64 -146 13 -111 44 -315 55 -361
7 -28 10 -63 6 -80 -3 -16 -1 -29 4 -29 6 0 10 -11 10 -25 0 -14 -4 -25 -10
-25 -5 0 -7 6 -4 14 4 9 -6 20 -25 30 -65 34 -96 108 -115 276 -4 30 -13 84
-22 119 -23 100 -45 251 -39 261 11 18 30 10 76 -34z m1667 -1068 c36 -9 47
-9 50 1 3 10 6 10 12 1 4 -6 29 -14 56 -16 52 -5 64 -13 82 -56 16 -40 0 -51
-120 -82 -57 -15 -111 -32 -120 -37 -22 -11 -28 -11 -28 0 0 5 16 16 36 26 60
28 38 40 -72 38 -93 -2 -154 9 -154 29 0 5 -7 8 -16 8 -13 0 -14 3 -5 14 8 10
9 16 1 21 -15 9 -2 25 21 25 11 0 32 8 46 18 26 16 123 33 152 25 7 -2 34 -9
59 -15z m4139 -256 c7 -4 13 -41 15 -92 3 -81 2 -85 -19 -88 -28 -4 -77 56
-76 95 1 50 23 93 46 93 12 0 27 -4 34 -8z m-637 -99 c14 -9 27 -18 29 -19 12
-10 32 -342 21 -349 -5 -3 -25 11 -43 32 -31 33 -36 45 -43 118 -10 104 -9 95
-18 132 -9 39 2 103 18 103 6 0 23 -8 36 -17z m576 -151 c-2 -4 0 -25 4 -47
l8 -40 1 48 c1 40 4 47 21 47 33 0 48 -39 55 -143 7 -88 19 -129 29 -95 2 7 9
33 16 58 24 84 31 96 59 94 33 -1 38 -28 18 -92 -8 -26 -23 -77 -32 -114 -10
-38 -22 -68 -27 -68 -5 0 -7 8 -3 19 4 13 -2 23 -19 35 -35 23 -44 20 -40 -11
2 -16 1 -21 -2 -13 -4 8 -15 26 -24 40 -10 14 -21 55 -25 93 -7 65 -16 80 -31
55 -12 -19 -23 21 -23 90 -1 40 3 61 9 57 6 -4 8 -9 6 -13z m634 -159 c3 -2 7
-40 9 -84 3 -84 14 -98 35 -48 9 20 15 27 18 18 5 -12 9 -12 28 -1 22 13 22
13 14 -30 -4 -24 -7 -52 -6 -63 1 -10 -2 -24 -7 -30 -4 -5 -8 -21 -9 -34 0
-13 -8 -31 -17 -40 -14 -15 -15 -14 -13 9 3 22 0 25 -27 23 -46 -4 -62 33 -78
171 -7 64 -11 119 -8 122 6 5 52 -4 61 -13z m455 -154 c4 -15 8 -47 9 -69 4
-49 11 -57 33 -39 10 8 28 20 40 26 22 13 22 12 18 -45 -5 -54 -5 -55 8 -27
17 39 28 22 34 -58 5 -62 5 -62 -12 -32 -9 16 -21 33 -27 36 -16 10 -36 -12
-30 -33 6 -23 -15 -23 -22 0 -3 10 -15 18 -27 19 -46 4 -49 14 -65 208 l-6 80
20 -19 c12 -10 24 -31 27 -47z m385 -79 c0 -12 7 -32 16 -45 9 -13 13 -29 9
-35 -3 -5 -1 -11 4 -11 6 -1 16 -3 21 -4 6 -1 19 -3 31 -4 18 -1 20 -5 14 -28
-4 -16 -7 -40 -6 -54 0 -14 -5 -34 -13 -45 -14 -18 -16 -18 -49 16 -32 33 -43
62 -52 143 -2 15 1 30 6 33 6 3 6 11 -1 19 -12 15 -6 35 11 35 5 0 9 -9 9 -20z
m-5015 -940 c-10 -16 15 -52 31 -46 9 4 30 -8 51 -29 21 -20 46 -35 60 -35 16
0 33 -13 55 -45 18 -25 35 -45 40 -45 4 0 5 -7 2 -15 -4 -8 -12 -15 -19 -15
-7 0 -12 -8 -11 -17 1 -13 -7 -19 -26 -21 -16 -2 -28 1 -28 7 0 6 -7 11 -15
11 -8 0 -19 9 -25 20 -7 13 -21 20 -39 20 -19 0 -34 8 -43 23 -21 31 -107 117
-118 117 -19 0 15 56 44 71 31 16 51 16 41 -1z m5615 -257 c35 -27 71 -54 82
-62 10 -7 18 -20 18 -27 0 -7 12 -20 28 -28 41 -21 76 -62 66 -78 -16 -25 -13
-39 7 -33 23 8 25 -8 4 -29 -8 -8 -15 -19 -15 -24 0 -5 -11 -13 -25 -16 -14
-4 -25 -11 -25 -17 0 -6 5 -7 11 -3 7 4 10 1 7 -7 -3 -8 -11 -14 -19 -14 -16
0 -59 -40 -59 -55 0 -5 -5 -10 -11 -10 -6 0 -9 7 -5 15 3 10 -1 15 -13 15 -12
0 -21 -10 -26 -27 -6 -24 -8 -26 -16 -10 -6 10 -14 15 -20 12 -5 -4 -9 1 -9 9
0 9 3 15 8 15 28 -5 33 4 10 17 -16 8 -28 20 -28 26 0 7 -4 7 -13 -1 -18 -14
-27 -4 -27 30 0 18 7 32 20 39 27 15 25 34 -5 50 -30 16 -32 27 -4 35 19 7 20
7 2 21 -17 13 -17 13 4 14 19 0 21 3 13 29 -4 16 -6 32 -2 35 3 3 -2 6 -10 6
-15 0 -48 70 -48 103 0 30 35 19 100 -30z m-2700 -598 c41 -28 63 -33 195 -49
55 -6 105 -15 112 -19 7 -4 42 -10 79 -13 37 -3 84 -11 105 -18 22 -8 41 -10
47 -4 13 13 59 -8 67 -31 4 -14 15 -21 31 -21 26 0 32 -18 12 -38 -9 -9 -7
-12 10 -12 12 0 22 -4 22 -9 0 -16 -20 -23 -33 -12 -7 5 -23 8 -35 4 -27 -7
-112 32 -112 51 0 15 -27 30 -47 27 -7 -1 -13 2 -13 8 0 5 -44 8 -107 7 -96
-3 -189 6 -233 22 -8 3 -19 4 -23 3 -5 -1 -24 8 -43 19 -48 30 -94 42 -111 28
-7 -6 -16 -8 -20 -5 -7 8 -12 79 -6 90 8 13 65 -3 103 -28z m-601 -137 c-7
-13 -6 -16 4 -12 8 3 17 -2 20 -10 4 -9 2 -16 -3 -16 -17 0 -11 -16 14 -41 25
-26 27 -47 7 -94 -8 -16 -15 -70 -17 -120 -2 -49 -6 -137 -9 -194 -4 -81 -1
-111 10 -134 8 -17 12 -39 9 -50 -5 -16 -3 -19 10 -14 24 9 20 -6 -9 -33 -15
-14 -25 -35 -25 -52 0 -16 -7 -31 -15 -34 -20 -8 -19 -30 1 -38 13 -5 16 -18
12 -66 -4 -53 -2 -63 19 -82 17 -16 20 -24 12 -35 -6 -7 -8 -13 -4 -13 4 0 2
-7 -5 -15 -17 -21 -27 -19 -35 6 -4 11 -20 25 -36 31 -23 8 -27 13 -19 23 9
10 6 19 -10 35 -12 12 -19 28 -16 36 3 9 1 12 -4 9 -6 -3 -10 3 -10 14 0 12 7
21 16 21 8 0 12 5 9 10 -4 6 5 10 19 10 17 0 26 6 26 16 0 12 -7 14 -30 9 -40
-9 -61 14 -78 79 -21 87 -23 127 -7 143 8 8 15 25 15 37 0 13 4 36 9 52 6 16
12 45 14 65 3 20 8 42 12 49 4 7 9 34 11 61 2 27 8 57 13 67 5 9 11 42 15 72
13 111 27 215 32 232 4 14 8 15 19 5 9 -8 10 -18 4 -29z m2106 -60 c8 -13 19
-23 24 -23 5 0 23 -12 40 -27 17 -16 35 -28 41 -28 17 0 11 -21 -10 -38 -16
-13 -21 -30 -21 -74 -1 -32 -5 -58 -8 -58 -4 0 -14 12 -23 28 -27 44 -89 102
-109 102 -12 0 -23 10 -29 26 -14 36 -13 38 20 52 30 14 41 32 18 32 -12 0 21
29 34 30 4 0 14 -10 23 -22z m255 -80 c10 -18 24 -39 30 -46 7 -7 9 -16 6 -19
-3 -3 34 -25 82 -50 64 -32 94 -53 112 -81 14 -20 33 -46 43 -56 25 -29 21
-39 -14 -32 -39 7 -86 41 -94 65 -6 19 -79 51 -116 51 -9 0 -29 17 -45 38 -15
20 -31 39 -35 42 -3 3 -10 24 -14 47 -4 24 -11 45 -16 49 -14 8 0 24 22 24 11
0 27 -13 39 -32z m-972 -24 c6 -2 12 -10 12 -19 0 -8 -6 -15 -12 -16 -7 0 3
-5 22 -12 21 -7 40 -23 48 -39 8 -17 24 -29 43 -33 17 -4 39 -15 49 -25 10
-10 26 -20 36 -22 15 -3 16 -5 3 -18 -8 -9 -19 -25 -26 -37 -10 -17 -9 -22 2
-27 22 -8 18 -26 -5 -26 -11 0 -20 -4 -20 -10 0 -5 10 -10 23 -10 16 0 18 -3
8 -9 -11 -7 -9 -13 8 -30 11 -11 21 -16 21 -11 0 6 7 10 15 10 8 0 15 -4 15
-10 0 -5 6 -10 13 -10 20 0 38 -16 41 -34 1 -10 7 -21 12 -24 5 -4 25 -38 44
-77 20 -38 45 -74 56 -80 32 -16 56 -44 48 -56 -3 -6 0 -15 7 -20 11 -7 6 -17
-23 -44 -21 -20 -38 -40 -38 -46 0 -7 -9 -9 -22 -4 -13 3 -33 9 -44 12 -12 3
-27 17 -34 31 -7 15 -17 35 -22 45 -7 14 -5 24 8 38 17 19 17 20 -4 25 -28 8
-65 80 -57 111 4 16 1 23 -10 23 -8 0 -15 9 -15 20 0 13 -10 24 -25 30 -26 10
-50 54 -39 71 3 5 0 9 -6 9 -23 0 -89 60 -83 75 3 9 -1 15 -10 15 -8 0 -37 20
-64 45 l-48 46 23 19 22 18 -20 35 c-18 31 -19 35 -5 41 9 3 13 11 10 17 -4 6
-13 8 -21 5 -14 -6 -19 6 -8 17 6 6 37 2 72 -9z m-4618 -192 c0 -5 -17 -16
-37 -27 -21 -10 -32 -20 -25 -22 7 -3 19 1 28 7 31 26 26 -2 -6 -35 -26 -26
-37 -32 -47 -24 -10 9 -13 8 -13 -3 0 -8 -15 -30 -32 -49 -41 -43 -84 -79 -73
-60 5 10 4 12 -3 7 -7 -4 -12 -13 -12 -21 0 -7 -6 -15 -13 -18 -9 -3 -12 5
-12 30 1 18 -2 36 -6 39 -5 2 -1 20 9 38 16 31 98 86 128 86 6 0 19 9 29 20
10 11 27 20 37 20 11 0 16 5 13 10 -3 6 3 10 14 10 12 0 21 -4 21 -8z m5957
-67 c3 -9 -2 -22 -12 -29 -16 -12 -13 -17 35 -62 28 -27 62 -54 73 -61 12 -6
24 -22 27 -35 3 -12 16 -28 29 -35 32 -16 111 -104 111 -125 0 -9 6 -23 13
-30 7 -7 12 -26 12 -43 -1 -25 -6 -31 -28 -33 -22 -3 -27 1 -27 17 0 12 -6 21
-14 21 -15 0 -29 40 -21 62 5 12 -35 38 -59 38 -6 0 -24 14 -39 30 -21 20 -27
34 -22 49 3 12 2 21 -4 21 -10 0 -67 52 -63 58 7 9 -1 20 -23 30 -21 10 -24
17 -20 41 3 16 1 33 -5 36 -14 8 -13 38 2 53 16 16 27 15 35 -3z m-401 -165
c6 -18 20 -37 31 -41 17 -6 37 -36 33 -47 -1 -2 6 -9 15 -16 16 -11 15 -14 -9
-29 -29 -19 -76 -14 -76 9 0 7 -6 11 -14 8 -9 -3 -19 4 -26 18 -7 13 -24 35
-38 50 l-25 28 26 24 c48 45 67 44 83 -4z m194 -173 c0 -18 -5 -38 -12 -45 -9
-9 -7 -16 7 -32 17 -18 21 -30 27 -77 1 -7 7 -13 14 -13 20 0 26 -17 18 -55
-5 -27 -10 -35 -22 -30 -8 3 -22 -1 -31 -9 -19 -17 -38 -6 -60 37 -8 15 -23
27 -33 27 -24 0 -23 7 9 53 l27 38 -19 35 c-17 33 -17 37 -2 69 14 29 22 35
47 35 27 0 30 -3 30 -33z m-7008 -159 c75 -2 139 -6 143 -9 3 -4 -29 -43 -72
-87 -43 -44 -91 -96 -106 -117 -43 -55 -105 -96 -133 -89 -17 4 -24 2 -24 -9
0 -9 -9 -14 -24 -14 -13 0 -39 -8 -57 -17 -23 -12 -35 -13 -40 -5 -4 8 -10 5
-18 -7 -6 -11 -11 -13 -11 -6 0 14 -50 17 -50 2 0 -5 -12 -9 -27 -9 -84 0
-134 -11 -157 -36 -13 -14 -31 -25 -40 -25 -9 0 -27 -9 -39 -21 -13 -12 -31
-19 -44 -16 -12 2 -20 0 -17 -4 3 -5 -2 -9 -10 -9 -9 0 -16 5 -16 10 0 6 -7
10 -16 10 -9 0 -14 6 -11 13 2 6 11 11 19 9 8 -1 20 9 26 23 17 36 15 41 -8
20 -20 -18 -21 -18 -35 1 -19 25 -19 44 0 44 9 0 15 9 15 25 0 18 -4 23 -15
19 -8 -4 -15 -1 -15 5 0 6 -9 20 -21 32 -19 19 -19 22 -5 38 19 21 21 51 4 51
-6 0 -8 3 -5 7 4 3 2 12 -4 19 -7 9 -7 25 1 53 12 46 59 81 112 84 18 1 39 6
46 10 6 5 15 6 20 4 4 -3 16 -1 27 3 18 8 265 7 607 -2z m7591 -106 c26 -29
47 -58 47 -65 0 -7 9 -18 20 -25 11 -7 20 -22 20 -35 0 -14 9 -26 23 -32 18
-8 22 -19 24 -55 2 -57 13 -109 24 -116 5 -3 9 -13 9 -24 0 -10 6 -20 14 -23
8 -3 20 -31 27 -61 7 -31 20 -63 31 -72 10 -10 18 -25 18 -35 0 -10 5 -21 10
-24 6 -4 8 -10 5 -15 -3 -5 -1 -11 5 -15 6 -3 17 -20 26 -37 9 -16 11 -27 5
-24 -18 12 -12 -22 7 -36 9 -7 23 -26 30 -41 7 -16 22 -31 33 -34 29 -8 20
-43 -16 -65 -28 -16 -34 -16 -75 -3 -25 9 -53 20 -62 25 -10 6 -31 10 -47 10
-16 0 -31 6 -34 13 -3 10 -9 10 -26 0 -29 -18 -71 -16 -92 3 -17 15 -20 15
-43 0 -32 -21 -84 -21 -107 0 -17 15 -20 15 -43 0 -14 -9 -37 -16 -52 -16 -19
0 -25 -4 -20 -15 3 -8 2 -15 -2 -15 -4 0 -16 20 -27 45 -12 27 -27 45 -37 45
-9 0 -24 3 -34 7 -13 5 -15 3 -8 -8 5 -8 9 -18 9 -24 0 -5 11 -12 24 -15 20
-4 25 -13 28 -44 1 -22 5 -41 7 -43 2 -3 -4 -13 -15 -24 -23 -23 -25 -67 -4
-75 20 -8 19 -38 -1 -58 -8 -9 -11 -16 -7 -16 11 0 11 -75 1 -85 -4 -4 -12 -4
-19 1 -9 5 -7 11 6 21 17 12 17 13 2 13 -9 0 -17 -5 -17 -11 0 -6 -7 -9 -15
-5 -8 3 -21 -4 -29 -16 -20 -28 -50 -17 -40 14 4 13 12 26 18 30 7 5 5 8 -6 8
-17 0 -41 32 -43 60 -1 8 -2 22 -3 31 -1 8 -12 26 -24 39 -15 16 -18 25 -10
28 7 2 12 21 12 43 0 22 4 38 8 35 13 -8 7 33 -6 46 -9 9 -18 9 -37 0 -38 -18
-70 -15 -90 8 l-18 20 -35 -20 c-23 -14 -50 -20 -81 -20 -25 1 -66 -5 -91 -13
-77 -25 -101 -5 -129 102 -26 99 -37 107 -47 35 -14 -111 -47 -164 -99 -164
-119 0 -149 214 -50 345 14 17 23 35 20 38 -3 4 -2 5 1 2 4 -2 25 6 48 19 119
68 226 53 273 -38 13 -26 13 -32 -3 -67 -16 -37 -69 -79 -99 -79 -11 0 -10 -7
4 -33 11 -17 22 -47 26 -65 6 -29 10 -33 33 -30 24 3 28 8 33 53 8 69 25 100
68 121 20 9 44 21 53 25 10 5 31 9 47 9 26 0 30 4 36 40 4 22 11 42 16 46 5 3
9 12 9 21 0 9 10 24 22 34 20 18 20 19 2 19 -16 0 -15 3 6 13 18 9 24 19 22
36 -2 14 5 33 19 47 l22 23 -26 10 c-15 6 -26 17 -25 28 0 10 -2 25 -6 34 -5
11 0 24 15 38 13 12 17 21 10 21 -7 0 -9 5 -6 10 5 8 11 7 21 -1 23 -19 16 1
-11 33 -30 36 -34 88 -7 88 10 0 23 5 29 11 7 7 19 9 29 5 16 -6 16 -8 1 -19
-9 -6 -17 -19 -19 -27 -2 -8 -9 -21 -16 -28 -16 -17 -1 -39 36 -53 13 -5 21
-13 17 -18 -3 -5 6 -22 20 -37 14 -15 25 -33 25 -40 0 -7 10 -22 22 -34 12
-11 20 -21 17 -23 -2 -2 -15 -11 -29 -20 -13 -9 -19 -17 -12 -17 8 0 10 -5 6
-12 -5 -7 -7 -26 -6 -42 2 -16 -5 -37 -14 -47 -14 -16 -15 -24 -6 -45 15 -31
15 -30 -2 -47 -20 -20 -9 -67 16 -67 11 0 22 -8 25 -19 5 -19 5 -19 25 1 33
33 53 20 54 -35 1 -26 3 -50 6 -53 14 -13 37 12 48 51 11 40 10 46 -9 71 -37
47 -26 108 25 143 47 32 98 24 137 -21 30 -36 34 -66 13 -107 -16 -29 -56 -61
-78 -61 -13 0 -52 -139 -42 -149 8 -8 39 14 41 30 9 70 17 92 44 119 37 36 79
40 109 8 23 -25 25 -37 8 -73 -16 -36 -52 -31 -56 8 -3 27 -4 28 -17 10 -8
-10 -15 -35 -15 -55 0 -28 5 -38 20 -43 28 -9 87 36 95 73 7 33 59 86 92 96
12 4 32 2 43 -4 l21 -11 -19 38 c-24 46 -42 102 -42 130 0 11 -11 33 -25 49
-14 16 -25 34 -25 40 0 6 -6 17 -14 23 -18 15 -25 55 -14 75 8 15 0 21 -24 17
-5 0 -8 3 -8 8 0 5 -9 13 -21 16 -12 4 -18 12 -15 21 3 7 1 16 -3 18 -5 3 -6
16 -4 29 3 14 -6 45 -21 74 -22 42 -26 62 -17 101 3 13 35 -11 74 -56z m-5705
3 c-4 -21 -1 -25 17 -25 13 0 26 -7 29 -16 4 -10 2 -13 -7 -8 -6 5 5 -10 26
-32 86 -88 95 -101 108 -136 16 -48 -1 -115 -34 -128 -20 -8 -19 -9 9 -9 60
-2 50 -21 -29 -58 -26 -13 -54 -23 -62 -23 -20 0 -19 29 3 53 16 19 16 19 -6
13 -17 -6 -31 0 -55 21 -19 16 -31 35 -29 43 3 7 -1 18 -9 24 -8 6 -15 28 -16
48 -2 29 2 41 17 50 22 14 26 28 9 28 -17 0 -41 29 -36 44 3 7 22 16 41 20 42
8 48 26 10 26 -22 0 -24 2 -14 14 8 11 9 20 1 33 -10 17 -10 17 -11 -1 0 -11
-3 -17 -6 -13 -10 10 6 46 24 50 9 3 19 5 21 6 2 0 1 -10 -1 -24z m4607 4 c-5
-15 -2 -22 14 -26 18 -5 20 -12 18 -56 -2 -28 -9 -53 -15 -55 -8 -2 -7 -10 3
-26 8 -12 15 -33 14 -47 0 -13 0 -46 1 -74 1 -27 -3 -61 -8 -75 l-10 -25 -11
29 c-7 17 -9 48 -5 73 5 34 3 43 -9 43 -18 0 -30 27 -16 36 6 3 3 11 -8 19
-17 13 -17 14 1 34 15 16 16 24 7 34 -8 11 -8 21 4 43 13 26 13 29 -1 32 -12
3 -13 7 -3 18 9 11 8 14 -5 14 -19 0 -21 16 -3 23 28 12 38 7 32 -14z m-2052
-79 c3 -11 30 -31 71 -50 72 -34 85 -60 47 -94 -18 -16 -22 -16 -72 7 -30 13
-66 29 -81 35 -27 11 -38 44 -19 56 4 3 11 19 14 36 7 34 32 40 40 10z m-1752
-81 c21 -20 39 -43 39 -52 0 -10 4 -17 9 -17 5 0 7 -10 3 -22 -4 -19 -3 -21 9
-11 12 10 24 3 63 -37 27 -27 53 -47 58 -44 14 9 36 -15 49 -54 7 -20 19 -42
27 -48 11 -8 12 -13 4 -18 -17 -10 -15 -71 3 -86 17 -14 20 -30 5 -30 -17 0
-70 42 -64 52 3 4 -5 8 -16 8 -13 0 -24 8 -27 20 -3 11 -14 20 -24 20 -11 0
-19 7 -19 15 0 8 -7 15 -15 15 -8 0 -24 14 -37 30 -13 18 -31 30 -45 30 -16 0
-23 6 -23 20 0 11 -5 20 -11 20 -6 0 -8 7 -5 15 5 13 0 15 -28 9 -25 -4 -40
-1 -56 13 -56 48 -79 76 -85 104 -6 25 -1 35 24 61 17 18 31 35 31 39 0 15 36
15 63 0 16 -9 46 -32 68 -52z m-1363 -76 c-1 -10 5 -29 15 -43 9 -13 17 -32
17 -42 0 -10 5 -18 10 -18 6 0 10 -8 10 -17 1 -10 8 -36 16 -58 17 -45 33
-105 39 -150 4 -26 4 -27 -3 -5 -5 15 -11 20 -15 13 -4 -6 -4 -19 0 -28 4 -13
2 -16 -8 -13 -8 3 -14 11 -14 19 0 16 -12 29 -40 45 -11 6 -23 25 -28 44 -4
18 -15 43 -24 56 -14 22 -14 26 1 49 21 31 20 35 -4 35 -16 0 -20 7 -20 35 0
24 5 35 15 35 8 0 15 7 15 16 0 11 -6 14 -20 9 -22 -7 -29 20 -7 28 28 12 48
7 45 -10z m1912 -392 c-1 -9 -9 -34 -20 -56 -11 -22 -19 -49 -20 -60 0 -29
-28 -65 -50 -65 -10 0 -26 10 -34 22 -25 35 -20 73 14 106 17 17 30 37 30 45
0 16 17 23 58 24 14 0 22 -5 22 -16z m-413 -119 c73 -46 154 -146 139 -171 -3
-4 5 -13 18 -19 29 -13 41 -44 27 -71 -8 -14 -7 -22 4 -31 22 -19 18 -29 -11
-27 -29 2 -94 58 -94 81 0 8 -6 17 -12 19 -10 4 -9 8 2 17 13 10 13 11 -2 6
-10 -3 -21 1 -25 8 -5 7 -16 15 -25 19 -11 4 -15 12 -12 21 3 9 -1 23 -10 31
-9 9 -16 24 -16 33 0 9 -3 34 -6 55 -7 37 -1 44 23 29z m773 -144 c17 -12 30
-25 30 -29 0 -4 6 -14 13 -21 24 -23 49 -158 30 -158 -3 0 -15 7 -25 17 -11 9
-18 11 -18 5 0 -7 -4 -12 -10 -12 -5 0 -10 6 -10 13 0 7 -8 20 -17 29 -65 59
-104 135 -89 173 8 22 54 14 96 -17z"/>
<path d="M4867 5709 c-36 -36 -84 -59 -124 -59 -15 0 -41 -7 -57 -15 -15 -8
-34 -15 -42 -15 -7 0 -33 -19 -56 -42 -49 -48 -93 -74 -118 -70 -29 5 -31 -43
-4 -73 26 -28 74 -34 74 -10 0 8 9 15 19 15 11 0 23 5 26 10 3 6 15 10 25 10
21 0 70 31 115 73 16 15 34 27 40 27 13 1 75 57 75 69 0 5 -6 12 -12 14 -10 4
-10 6 0 6 15 1 66 52 75 75 9 24 -1 20 -36 -15z"/>
<path d="M4513 5284 c-18 -9 -33 -21 -33 -26 0 -5 -4 -7 -9 -4 -9 6 -43 -28
-60 -60 -6 -12 -12 -44 -13 -70 l-3 -49 43 1 c23 0 42 -4 42 -9 0 -6 22 -8 55
-4 30 3 57 1 60 -4 10 -16 118 -10 155 9 42 20 77 80 65 108 -28 63 19 94 110
74 33 -7 56 -8 70 -1 11 5 38 13 60 17 26 5 33 9 20 11 -11 2 -27 7 -35 10
-32 11 -199 14 -278 3 -65 -9 -87 -8 -99 1 -12 10 -16 10 -23 -2 -7 -11 -12
-11 -22 -1 -17 17 -66 15 -105 -4z"/>
<path d="M3800 4388 c0 -15 -4 -29 -8 -32 -5 -3 -9 -20 -10 -37 0 -17 -6 -37
-11 -42 -6 -6 -11 -19 -11 -28 0 -9 -6 -22 -14 -28 -8 -6 -16 -24 -19 -39 -3
-15 -21 -90 -41 -167 -35 -139 -35 -140 -15 -161 10 -11 19 -28 19 -37 0 -19
41 -42 93 -52 20 -4 39 -11 42 -15 3 -5 23 -6 45 -4 22 3 61 6 87 7 26 2 53 5
58 9 6 3 25 9 43 13 18 4 36 13 38 20 3 7 15 16 27 19 12 3 48 31 80 61 33 30
63 55 68 55 5 0 9 6 9 14 0 8 12 24 26 35 15 12 21 21 15 21 -8 0 -9 5 -1 19
16 31 14 32 -54 26 -41 -4 -66 -3 -71 4 -3 6 -15 11 -25 11 -10 0 -46 18 -79
40 -33 22 -68 40 -77 40 -10 0 -25 7 -35 16 -9 8 -23 17 -31 18 -7 1 -23 8
-35 14 -17 10 -28 10 -44 2 -27 -15 -37 -5 -20 22 8 12 9 23 3 27 -5 3 -9 33
-8 66 1 45 6 64 20 78 19 17 19 17 -2 17 -11 0 -24 -5 -28 -12 -5 -7 -11 -5
-21 7 -12 18 -13 17 -13 -7z"/>
<path d="M5107 3650 c-16 -5 -34 -13 -40 -18 -7 -6 -31 -15 -54 -21 -28 -8
-43 -17 -43 -28 0 -11 -3 -13 -13 -5 -7 6 -24 9 -37 7 -65 -9 -138 -27 -175
-43 -22 -10 -60 -25 -84 -34 -44 -14 -67 -38 -38 -38 8 0 45 11 82 25 71 27
95 23 95 -15 0 -26 38 -56 52 -42 7 7 22 12 33 12 12 0 33 9 46 20 76 64 167
123 197 127 39 7 51 26 29 48 -9 8 -17 15 -19 14 -2 0 -16 -5 -31 -9z"/>
<path d="M8024 701 c-67 -17 -111 -72 -134 -167 -13 -59 1 -128 29 -139 23 -9
38 19 46 87 6 51 5 62 -9 70 -23 13 -21 58 2 58 10 0 22 12 29 30 9 23 17 30
38 30 25 0 27 -3 23 -35 -4 -32 -2 -35 23 -35 32 0 79 35 79 60 0 37 -62 57
-126 41z"/>
<path d="M8942 9587 c-4 -7 -14 -12 -22 -12 -9 0 -14 -7 -12 -20 5 -29 12 -32
27 -12 9 12 15 14 20 7 5 -8 11 -8 21 1 11 9 17 9 29 -1 12 -10 15 -10 15 4 0
9 -6 16 -12 17 -7 0 2 5 21 10 28 9 36 7 53 -11 11 -11 22 -32 24 -46 4 -22 1
-25 -18 -22 -13 2 -22 8 -21 14 1 7 -9 12 -22 12 -29 0 -30 -2 -9 -33 9 -14
13 -33 9 -45 -5 -16 -2 -20 17 -20 18 0 20 2 8 10 -13 8 -13 10 1 10 9 0 22 7
29 15 16 19 31 20 24 1 -3 -7 5 -20 18 -28 13 -9 33 -26 46 -37 16 -16 22 -18
22 -7 0 7 -7 16 -15 20 -16 6 -20 31 -7 39 15 10 60 -6 65 -23 6 -22 61 -50
101 -50 24 0 27 -3 16 -10 -12 -8 -12 -10 5 -9 11 0 29 4 40 9 19 8 19 9 -2 9
-13 1 -23 5 -23 10 0 6 -19 11 -42 13 -34 2 -44 8 -58 33 -9 17 -26 31 -38 33
-23 4 -55 40 -46 54 3 4 14 3 25 -2 12 -7 26 -7 37 -2 9 5 29 12 43 16 24 5
27 3 33 -30 6 -30 9 -34 22 -23 13 10 17 10 25 -2 5 -8 9 -9 9 -2 0 12 45 12
57 0 3 -4 15 0 25 10 25 22 31 12 14 -22 -11 -20 -12 -33 -5 -41 7 -9 5 -16
-10 -23 -23 -13 -18 -37 10 -46 34 -11 21 -28 -15 -21 -34 6 -34 6 -34 -29 0
-44 13 -50 61 -30 33 14 52 45 27 45 -5 0 -10 9 -10 19 0 11 -5 21 -11 23 -7
2 -9 13 -5 26 6 18 11 20 27 12 10 -6 19 -18 20 -28 0 -14 2 -13 8 3 5 11 7
23 4 27 -2 5 -6 17 -8 28 -5 27 19 26 33 -2 8 -19 11 -5 11 68 1 87 0 92 -21
98 -33 8 -258 7 -257 -1 3 -21 -2 -43 -10 -43 -5 0 -7 9 -4 19 7 27 -10 30
-195 29 -111 0 -164 -4 -170 -11z"/>
<path d="M9312 9123 c-23 -2 -40 -8 -37 -12 2 -5 -3 -8 -12 -7 -13 1 -19 -11
-25 -44 -5 -25 -6 -53 -4 -62 3 -12 -2 -18 -14 -18 -10 0 -25 -7 -34 -15 -9
-10 -34 -15 -71 -15 -41 0 -57 -4 -62 -16 -4 -11 -13 -13 -34 -9 -22 5 -29 3
-29 -8 0 -12 -13 -15 -57 -14 -35 0 -58 -4 -61 -11 -2 -7 -11 -12 -20 -12 -8
0 -13 3 -10 6 4 3 -2 14 -12 24 -23 23 -92 29 -114 11 -9 -7 -25 -11 -36 -8
-11 3 -18 1 -14 -4 3 -5 -2 -9 -10 -9 -9 0 -17 -6 -18 -12 0 -7 -2 -24 -4 -38
-3 -34 -8 -53 -17 -67 -11 -17 4 -121 18 -127 7 -2 15 -23 19 -47 6 -39 4 -45
-26 -77 -18 -18 -50 -43 -71 -53 -21 -11 -56 -38 -77 -59 -22 -22 -46 -40 -53
-40 -7 0 -37 -25 -67 -55 -31 -31 -63 -55 -75 -55 -12 0 -42 -22 -70 -50 -27
-27 -58 -50 -68 -50 -20 0 -68 -30 -106 -67 -13 -13 -30 -23 -38 -23 -15 0
-100 -56 -118 -77 -5 -7 -22 -14 -37 -17 -14 -2 -51 -20 -82 -40 -31 -20 -68
-39 -83 -42 -16 -4 -50 -21 -78 -39 -27 -18 -59 -38 -70 -44 -17 -10 -12 -11
25 -5 60 9 205 68 240 98 16 13 51 32 77 42 26 9 58 27 70 40 12 12 52 36 88
53 36 17 65 35 65 39 0 9 95 72 109 72 4 0 24 16 45 35 21 19 45 35 52 35 8 0
14 4 14 9 0 5 10 13 22 17 12 3 32 19 46 35 13 16 45 42 71 56 25 15 54 38 64
50 10 12 22 22 27 20 5 -1 16 7 24 18 15 19 15 19 16 -10 0 -22 3 -26 10 -15
5 8 12 11 16 7 4 -3 2 -13 -4 -20 -9 -10 -8 -19 3 -35 9 -12 14 -40 13 -67 -1
-26 3 -50 8 -53 5 -4 10 -36 12 -71 1 -35 7 -72 12 -82 6 -10 6 -20 2 -23 -5
-3 -7 -30 -5 -60 2 -49 -1 -58 -27 -86 -26 -28 -38 -33 -88 -35 -31 -2 -62 -3
-67 -4 -6 -1 -18 -14 -27 -29 -16 -27 -22 -29 -83 -29 -67 -1 -105 -19 -105
-49 0 -16 -21 -23 -40 -13 -15 7 -138 6 -143 -2 -1 -2 -7 -13 -13 -23 -9 -17
-22 -20 -97 -20 -48 -1 -87 3 -87 8 0 4 -19 -10 -41 -33 -29 -28 -45 -38 -53
-32 -7 6 -53 12 -104 14 -83 4 -92 3 -92 -13 0 -25 -27 -45 -42 -32 -13 10
-109 23 -162 22 -18 0 -40 -11 -56 -28 -15 -15 -36 -33 -46 -40 -17 -11 -15
-12 16 -7 19 2 89 8 155 11 66 3 124 10 129 15 6 5 20 9 32 9 13 0 25 4 28 9
3 5 39 8 80 6 58 -2 80 2 102 16 19 12 33 15 45 9 12 -7 21 -5 29 5 7 8 15 13
19 10 10 -6 107 11 171 30 73 22 103 25 117 14 7 -7 14 -6 18 1 11 18 99 53
145 57 27 2 62 15 89 33 35 22 48 26 59 18 9 -8 16 -8 20 -1 4 6 18 14 32 18
14 4 33 14 42 22 28 25 52 9 45 -32 -3 -19 -1 -37 4 -41 6 -3 7 -19 3 -37 -4
-18 -7 -36 -6 -42 9 -82 13 -131 17 -185 2 -36 6 -94 9 -130 2 -36 7 -128 11
-205 7 -135 12 -210 14 -210 1 0 3 -67 6 -150 2 -82 6 -190 9 -240 12 -200 16
-352 10 -358 -8 -8 -7 -151 1 -177 3 -11 1 -28 -4 -39 -8 -14 -8 -22 0 -26 6
-4 10 -21 9 -39 -1 -17 -1 -33 -1 -36 1 -3 4 -59 6 -125 5 -148 13 -286 20
-345 3 -25 7 -71 9 -103 3 -31 8 -62 11 -68 4 -5 2 -16 -4 -23 -12 -14 -3
-116 10 -116 5 0 5 -9 1 -19 -9 -26 -3 -163 8 -156 4 3 6 -4 3 -14 -3 -13 4
-25 22 -37 24 -16 25 -18 10 -33 -13 -13 -17 -14 -24 -3 -6 11 -10 10 -15 -4
-4 -11 -2 -20 3 -22 6 -2 8 -14 5 -27 -4 -16 1 -30 13 -42 11 -11 23 -28 27
-38 7 -18 8 -18 19 4 13 26 47 37 59 18 10 -17 17 -6 27 49 7 36 7 52 -2 59
-14 11 -15 37 -3 77 6 21 13 25 32 22 21 -4 24 -1 24 25 0 23 -4 29 -15 25
-16 -7 -45 12 -45 28 0 6 7 8 15 4 8 -3 15 -1 15 5 0 6 4 8 9 5 8 -5 24 64 16
72 -2 2 -10 -9 -18 -24 -8 -16 -17 -22 -21 -16 -3 6 -2 13 4 17 5 3 10 15 10
26 0 10 5 19 11 19 6 0 9 6 7 13 -3 6 -10 12 -17 12 -14 0 -32 26 -25 37 3 5
10 6 15 3 5 -4 4 6 -2 21 -10 27 -9 27 9 11 10 -9 22 -17 26 -17 4 0 5 42 2
94 l-7 94 47 4 c25 2 48 0 50 -4 3 -5 16 -8 30 -8 15 0 23 -4 19 -10 -4 -6
-11 -8 -16 -5 -5 4 -9 1 -9 -6 0 -8 13 -10 45 -6 25 4 47 2 50 -3 3 -6 -3 -10
-14 -10 -13 0 -21 -6 -21 -17 0 -15 2 -15 9 -4 5 8 16 11 25 8 10 -4 19 -1 22
7 7 19 -13 56 -30 56 -8 0 -16 6 -19 14 -3 8 -19 17 -36 21 -17 4 -31 11 -31
15 0 5 7 7 15 4 20 -8 19 13 0 33 -13 12 -18 13 -31 3 -19 -17 -28 -7 -16 17
7 12 7 25 1 34 -5 7 -8 48 -8 89 1 76 15 110 46 110 8 0 11 5 7 11 -3 6 -2 14
4 18 7 4 13 18 15 31 2 13 10 26 18 29 17 5 39 27 39 38 0 5 12 23 28 40 15
17 43 60 62 95 19 34 50 78 68 96 17 18 32 39 32 47 0 8 7 15 15 15 9 0 15 6
13 14 -4 17 39 56 61 56 9 0 26 3 39 6 15 4 22 2 22 -8 0 -8 13 -24 29 -36
l30 -22 0 287 0 287 -19 -32 c-11 -18 -20 -37 -20 -42 0 -6 -5 -10 -11 -10 -5
0 -15 -13 -20 -29 -16 -45 -44 -30 -65 33 -9 28 -24 65 -34 81 -10 17 -16 35
-13 41 2 6 -2 24 -8 40 -6 16 -13 40 -15 53 -2 13 -7 27 -11 30 -16 12 -53
101 -58 141 -1 8 -12 35 -23 60 -12 25 -22 53 -22 63 0 9 -4 17 -9 17 -5 0
-15 26 -21 58 -7 31 -19 65 -28 75 -13 15 -14 22 -4 35 6 9 18 31 26 49 8 17
23 40 33 50 10 10 25 33 32 50 7 17 23 40 37 52 13 11 24 26 24 32 0 6 7 8 16
5 8 -3 24 -1 35 4 16 9 30 0 92 -62 41 -40 77 -80 80 -88 4 -8 5 38 4 103 -2
103 -4 120 -21 132 -10 8 -23 16 -29 18 -5 1 -11 33 -14 70 -4 64 -2 71 31
126 l36 59 0 158 c0 137 -2 156 -13 134 -28 -53 -68 -110 -77 -110 -5 0 -7 -6
-4 -14 3 -8 -10 -32 -29 -53 -18 -21 -37 -46 -40 -55 -4 -10 -14 -18 -23 -18
-8 0 -24 -10 -34 -22 -11 -14 -30 -23 -50 -24 -27 -2 -34 3 -43 27 -7 17 -23
32 -39 38 -15 6 -28 16 -28 24 0 7 -11 20 -25 27 -29 15 -32 32 -9 54 8 9 12
16 8 16 -4 0 8 12 27 26 34 26 78 48 91 46 11 -2 18 27 7 34 -24 14 -77 -7
-100 -40 -22 -32 -70 -56 -113 -56 -9 0 -16 -8 -16 -17 -1 -27 -25 -53 -49
-53 -36 0 -86 -26 -104 -54 -14 -21 -25 -26 -60 -26 l-43 0 1 43 c1 23 3 50 3
59 1 10 20 27 42 38 35 18 41 19 46 5 3 -8 12 -15 20 -15 8 0 14 -6 14 -14 0
-8 5 -18 11 -22 9 -5 10 6 7 39 -4 35 -1 50 12 65 14 15 17 32 14 80 -3 51 -1
62 14 66 20 7 71 18 202 45 105 21 131 30 174 60 22 15 35 17 53 10 13 -5 26
-9 28 -9 2 0 6 18 10 39 11 69 66 92 91 39 14 -30 -20 -97 -50 -100 -41 -3
-45 -3 -52 -11 -4 -4 -2 -7 5 -7 7 0 3 -9 -9 -22 -11 -12 -20 -25 -20 -30 0
-15 27 -8 50 12 23 20 32 23 60 21 10 0 11 1 3 5 -9 4 -6 15 12 38 27 36 31
71 13 111 -9 19 -9 28 0 37 9 9 12 76 12 229 0 180 -3 219 -15 229 -12 10 -16
8 -24 -11 -5 -13 -10 -18 -10 -11 -1 19 -36 14 -56 -8 -21 -23 -40 -27 -32 -5
5 11 1 12 -20 4 -33 -12 -36 -8 -23 25 6 18 6 25 0 21 -6 -3 -15 -3 -22 1 -7
5 -5 11 7 21 18 12 18 13 -2 13 -12 0 -25 5 -28 10 -3 6 -9 9 -13 8 -4 -1 -26
-3 -50 -5z m-200 -1157 c95 -92 120 -131 125 -191 3 -46 -43 -154 -66 -155 -8
0 -19 -8 -26 -17 -11 -15 -13 -13 -20 15 -3 18 -10 30 -15 27 -4 -3 -9 10 -9
28 -2 58 -17 123 -33 143 -4 6 -6 19 -2 28 4 11 1 16 -13 16 -15 0 -21 12 -30
58 -23 112 -25 132 -11 132 8 0 52 -38 100 -84z m-167 -38 c0 -14 7 -34 16
-44 29 -34 43 -68 46 -119 2 -38 8 -55 27 -70 24 -20 53 -91 42 -102 -3 -4 -2
-11 4 -18 19 -23 15 -82 -10 -118 -13 -20 -29 -33 -34 -30 -5 4 -6 -4 -3 -18
7 -30 -54 -119 -81 -119 -16 0 -18 9 -17 73 0 39 3 77 7 82 5 9 3 88 -5 173
-2 17 0 37 4 44 4 7 3 20 -2 29 -5 10 -12 75 -14 144 -5 101 -3 126 7 123 7
-3 13 -16 13 -30z m245 -643 c0 -7 6 -18 13 -22 17 -10 57 -134 57 -175 0 -15
4 -28 9 -28 15 0 48 -65 56 -109 8 -46 32 -101 45 -101 4 0 10 -15 13 -32 6
-39 43 -150 64 -193 13 -26 13 -30 -3 -42 -10 -7 -24 -13 -31 -13 -20 0 -121
93 -122 113 -1 9 -7 17 -15 17 -15 0 -161 144 -184 182 -8 13 -24 28 -36 34
-17 7 -23 22 -29 79 -9 69 -8 71 27 130 20 33 44 66 53 73 9 6 13 12 9 12 -9
0 2 18 34 59 27 34 40 39 40 16z m-58 -611 c56 -59 120 -122 140 -142 45 -42
55 -70 52 -144 -3 -61 -14 -86 -69 -158 -18 -25 -34 -51 -34 -57 -1 -7 -5 -13
-10 -13 -5 0 -15 -12 -23 -27 -7 -16 -44 -74 -81 -131 -37 -56 -67 -105 -67
-108 0 -10 -40 -47 -45 -42 -5 5 -16 164 -17 233 0 11 -4 112 -10 225 -17 372
-17 439 -1 455 32 33 58 18 165 -91z"/>
<path d="M9587 5204 c-3 -3 -3 -12 0 -20 4 -10 -4 -12 -35 -8 -23 2 -43 0 -47
-6 -3 -5 -1 -10 6 -10 7 0 5 -8 -6 -20 -12 -13 -20 -39 -22 -67 -1 -26 -7 -50
-14 -54 -6 -4 -9 -11 -5 -17 9 -14 56 9 56 28 0 9 3 11 8 5 4 -5 22 -11 40
-13 30 -2 32 0 32 30 0 25 -3 29 -12 20 -7 -7 -18 -12 -26 -12 -12 0 -12 4 1
24 15 22 14 24 -6 35 -21 11 -8 9 24 -3 13 -6 16 2 18 44 1 50 0 56 -12 44z"/>
<path d="M330 2778 c0 -12 -3 -18 -7 -15 -3 4 -13 1 -21 -6 -13 -10 -15 -9 -9
5 9 26 -8 30 -28 8 -14 -16 -20 -17 -27 -8 -6 10 -8 9 -8 -3 0 -12 -7 -15 -27
-12 -47 7 -92 4 -113 -7 -11 -6 -36 -11 -55 -12 l-35 -1 0 -108 c0 -76 4 -109
13 -112 10 -4 10 -6 0 -6 -9 -1 -13 -21 -13 -63 l0 -63 38 0 c40 0 86 22 65
31 -18 8 -16 34 2 34 7 0 19 -8 24 -17 9 -16 12 -16 21 -3 9 13 10 13 10 0 1
-12 3 -11 11 3 5 9 21 17 35 17 17 0 28 7 31 20 3 11 10 20 15 20 5 0 6 -5 2
-11 -3 -6 0 -15 7 -20 24 -15 29 -10 19 17 -15 38 -13 44 18 44 37 0 46 -10
24 -26 -16 -13 -16 -13 1 -14 10 0 20 7 23 15 4 8 12 15 19 15 7 0 16 10 20
23 4 13 8 17 12 10 8 -22 50 -15 67 12 9 13 16 31 16 40 0 8 4 15 10 15 8 0 8
13 0 50 0 3 -7 -4 -15 -14 -15 -20 -15 -20 -29 0 -18 24 -26 16 -15 -13 5 -13
15 -23 24 -23 23 0 18 -15 -9 -29 -21 -12 -26 -11 -44 7 -16 16 -29 20 -56 15
-22 -3 -36 -2 -36 5 0 5 9 8 20 5 11 -3 20 0 20 6 0 6 11 16 25 23 19 9 22 14
15 29 -14 25 -12 35 6 53 8 9 11 16 5 16 -6 0 -11 9 -11 21 0 12 -8 23 -20 26
-11 3 -20 9 -20 14 0 5 -4 9 -10 9 -5 0 -10 -10 -10 -22z"/>
</g>
</svg>
